%TF.GenerationSoftware,KiCad,Pcbnew,(6.0.7)*%
%TF.CreationDate,2022-09-12T19:52:28+08:00*%
%TF.ProjectId,STM32Breakout,53544d33-3242-4726-9561-6b6f75742e6b,rev?*%
%TF.SameCoordinates,Original*%
%TF.FileFunction,Drillmap*%
%TF.FilePolarity,Positive*%
%FSLAX45Y45*%
G04 Gerber Fmt 4.5, Leading zero omitted, Abs format (unit mm)*
G04 Created by KiCad (PCBNEW (6.0.7)) date 2022-09-12 19:52:28*
%MOMM*%
%LPD*%
G01*
G04 APERTURE LIST*
%ADD10C,0.100000*%
%ADD11C,0.200000*%
%ADD12C,0.030000*%
%ADD13C,0.060000*%
%ADD14C,0.085000*%
G04 APERTURE END LIST*
D10*
X8813800Y-11480162D02*
X8483600Y-11277600D01*
X7567924Y-11101076D02*
G75*
G03*
X7745724Y-11278876I177796J-4D01*
G01*
X7567924Y-11101076D02*
X7567924Y-8279124D01*
X8126724Y-11278876D02*
X7745724Y-11278876D01*
X7745724Y-8101324D02*
X11278876Y-8102600D01*
X11480803Y-8280400D02*
G75*
G03*
X11278876Y-8102600I-201923J-25760D01*
G01*
X11480800Y-11278876D02*
X11480800Y-8280400D01*
X11278876Y-11481436D02*
G75*
G03*
X11480800Y-11278876I-30356J232186D01*
G01*
X7745724Y-8101324D02*
G75*
G03*
X7567924Y-8279124I-4J-177796D01*
G01*
X8813800Y-11480162D02*
X11278876Y-11481438D01*
X8483600Y-11277600D02*
X8126724Y-11278876D01*
D11*
D12*
X8163800Y-10145000D02*
X8193800Y-10175000D01*
X8193800Y-10145000D02*
X8163800Y-10175000D01*
X8494000Y-8189200D02*
X8524000Y-8219200D01*
X8524000Y-8189200D02*
X8494000Y-8219200D01*
X8494000Y-9535400D02*
X8524000Y-9565400D01*
X8524000Y-9535400D02*
X8494000Y-9565400D01*
X8519400Y-8316200D02*
X8549400Y-8346200D01*
X8549400Y-8316200D02*
X8519400Y-8346200D01*
X8519400Y-8671800D02*
X8549400Y-8701800D01*
X8549400Y-8671800D02*
X8519400Y-8701800D01*
X8595600Y-11065150D02*
X8625600Y-11095150D01*
X8625600Y-11065150D02*
X8595600Y-11095150D01*
X8748000Y-11008600D02*
X8778000Y-11038600D01*
X8778000Y-11008600D02*
X8748000Y-11038600D01*
X8900400Y-11364200D02*
X8930400Y-11394200D01*
X8930400Y-11364200D02*
X8900400Y-11394200D01*
X9179800Y-9332200D02*
X9209800Y-9362200D01*
X9209800Y-9332200D02*
X9179800Y-9362200D01*
X9205200Y-9941800D02*
X9235200Y-9971800D01*
X9235200Y-9941800D02*
X9205200Y-9971800D01*
X9306800Y-9281400D02*
X9336800Y-9311400D01*
X9336800Y-9281400D02*
X9306800Y-9311400D01*
X9332200Y-8976600D02*
X9362200Y-9006600D01*
X9362200Y-8976600D02*
X9332200Y-9006600D01*
X9383000Y-8824200D02*
X9413000Y-8854200D01*
X9413000Y-8824200D02*
X9383000Y-8854200D01*
X9408400Y-10094200D02*
X9438400Y-10124200D01*
X9438400Y-10094200D02*
X9408400Y-10124200D01*
X9441303Y-10391497D02*
X9471303Y-10421497D01*
X9471303Y-10391497D02*
X9441303Y-10421497D01*
X9510000Y-10318200D02*
X9540000Y-10348200D01*
X9540000Y-10318200D02*
X9510000Y-10348200D01*
X9560800Y-8951200D02*
X9590800Y-8981200D01*
X9590800Y-8951200D02*
X9560800Y-8981200D01*
X9586200Y-9941800D02*
X9616200Y-9971800D01*
X9616200Y-9941800D02*
X9586200Y-9971800D01*
X9605768Y-10400111D02*
X9635768Y-10430111D01*
X9635768Y-10400111D02*
X9605768Y-10430111D01*
X9662400Y-8951200D02*
X9692400Y-8981200D01*
X9692400Y-8951200D02*
X9662400Y-8981200D01*
X9662400Y-9789400D02*
X9692400Y-9819400D01*
X9692400Y-9789400D02*
X9662400Y-9819400D01*
X9662400Y-10318200D02*
X9692400Y-10348200D01*
X9692400Y-10318200D02*
X9662400Y-10348200D01*
X9764000Y-10399000D02*
X9794000Y-10429000D01*
X9794000Y-10399000D02*
X9764000Y-10429000D01*
X9812260Y-8956280D02*
X9842260Y-8986280D01*
X9842260Y-8956280D02*
X9812260Y-8986280D01*
X9814800Y-10322800D02*
X9844800Y-10352800D01*
X9844800Y-10322800D02*
X9814800Y-10352800D01*
X9916400Y-8895800D02*
X9946400Y-8925800D01*
X9946400Y-8895800D02*
X9916400Y-8925800D01*
X9938454Y-10357158D02*
X9968454Y-10387158D01*
X9968454Y-10357158D02*
X9938454Y-10387158D01*
X9992600Y-8951200D02*
X10022600Y-8981200D01*
X10022600Y-8951200D02*
X9992600Y-8981200D01*
X10043400Y-9535400D02*
X10073400Y-9565400D01*
X10073400Y-9535400D02*
X10043400Y-9565400D01*
X10043400Y-9637000D02*
X10073400Y-9667000D01*
X10073400Y-9637000D02*
X10043400Y-9667000D01*
X10068800Y-8895800D02*
X10098800Y-8925800D01*
X10098800Y-8895800D02*
X10068800Y-8925800D01*
X10145000Y-8951200D02*
X10175000Y-8981200D01*
X10175000Y-8951200D02*
X10145000Y-8981200D01*
X10145000Y-10348200D02*
X10175000Y-10378200D01*
X10175000Y-10348200D02*
X10145000Y-10378200D01*
X10228550Y-8979140D02*
X10258550Y-9009140D01*
X10258550Y-8979140D02*
X10228550Y-9009140D01*
X10272000Y-10145000D02*
X10302000Y-10175000D01*
X10302000Y-10145000D02*
X10272000Y-10175000D01*
X10322800Y-9205200D02*
X10352800Y-9235200D01*
X10352800Y-9205200D02*
X10322800Y-9235200D01*
X10475200Y-10195800D02*
X10505200Y-10225800D01*
X10505200Y-10195800D02*
X10475200Y-10225800D01*
X10602200Y-9332200D02*
X10632200Y-9362200D01*
X10632200Y-9332200D02*
X10602200Y-9362200D01*
X10602200Y-9586200D02*
X10632200Y-9616200D01*
X10632200Y-9586200D02*
X10602200Y-9616200D01*
X10602200Y-9687800D02*
X10632200Y-9717800D01*
X10632200Y-9687800D02*
X10602200Y-9717800D01*
X10602200Y-9891000D02*
X10632200Y-9921000D01*
X10632200Y-9891000D02*
X10602200Y-9921000D01*
X10602200Y-9992600D02*
X10632200Y-10022600D01*
X10632200Y-9992600D02*
X10602200Y-10022600D01*
X10602200Y-10094200D02*
X10632200Y-10124200D01*
X10632200Y-10094200D02*
X10602200Y-10124200D01*
X10602200Y-10195800D02*
X10632200Y-10225800D01*
X10632200Y-10195800D02*
X10602200Y-10225800D01*
X10604165Y-9787435D02*
X10634165Y-9817435D01*
X10634165Y-9787435D02*
X10604165Y-9817435D01*
D13*
X7932650Y-10368800D02*
G75*
G03*
X7932650Y-10368800I-30000J0D01*
G01*
D11*
X7867650Y-10398800D02*
X7937650Y-10398800D01*
X7867650Y-10338800D02*
X7937650Y-10338800D01*
X7937650Y-10398800D02*
G75*
G03*
X7937650Y-10338800I0J30000D01*
G01*
X7867650Y-10338800D02*
G75*
G03*
X7867650Y-10398800I0J-30000D01*
G01*
D13*
X7932650Y-11068800D02*
G75*
G03*
X7932650Y-11068800I-30000J0D01*
G01*
D11*
X7937650Y-11038800D02*
X7867650Y-11038800D01*
X7937650Y-11098800D02*
X7867650Y-11098800D01*
X7867650Y-11038800D02*
G75*
G03*
X7867650Y-11098800I0J-30000D01*
G01*
X7937650Y-11098800D02*
G75*
G03*
X7937650Y-11038800I0J30000D01*
G01*
D14*
X8172650Y-10426300D02*
X8172650Y-10511300D01*
X8130150Y-10468800D02*
X8215150Y-10468800D01*
X8172650Y-10926300D02*
X8172650Y-11011300D01*
X8130150Y-10968800D02*
X8215150Y-10968800D01*
D10*
X9205756Y-10983256D02*
X9205756Y-10912544D01*
X9135044Y-10912544D01*
X9135044Y-10983256D01*
X9205756Y-10983256D01*
X9205756Y-11237256D02*
X9205756Y-11166544D01*
X9135044Y-11166544D01*
X9135044Y-11237256D01*
X9205756Y-11237256D01*
X9459756Y-10983256D02*
X9459756Y-10912544D01*
X9389044Y-10912544D01*
X9389044Y-10983256D01*
X9459756Y-10983256D01*
X9459756Y-11237256D02*
X9459756Y-11166544D01*
X9389044Y-11166544D01*
X9389044Y-11237256D01*
X9459756Y-11237256D01*
X9713756Y-10983256D02*
X9713756Y-10912544D01*
X9643044Y-10912544D01*
X9643044Y-10983256D01*
X9713756Y-10983256D01*
X9713756Y-11237256D02*
X9713756Y-11166544D01*
X9643044Y-11166544D01*
X9643044Y-11237256D01*
X9713756Y-11237256D01*
X9738156Y-8442756D02*
X9738156Y-8372044D01*
X9667444Y-8372044D01*
X9667444Y-8442756D01*
X9738156Y-8442756D01*
X9967756Y-10983256D02*
X9967756Y-10912544D01*
X9897044Y-10912544D01*
X9897044Y-10983256D01*
X9967756Y-10983256D01*
X9967756Y-11237256D02*
X9967756Y-11166544D01*
X9897044Y-11166544D01*
X9897044Y-11237256D01*
X9967756Y-11237256D01*
X9992156Y-8442756D02*
X9992156Y-8372044D01*
X9921444Y-8372044D01*
X9921444Y-8442756D01*
X9992156Y-8442756D01*
X10221756Y-10983256D02*
X10221756Y-10912544D01*
X10151044Y-10912544D01*
X10151044Y-10983256D01*
X10221756Y-10983256D01*
X10221756Y-11237256D02*
X10221756Y-11166544D01*
X10151044Y-11166544D01*
X10151044Y-11237256D01*
X10221756Y-11237256D01*
X10246156Y-8442756D02*
X10246156Y-8372044D01*
X10175444Y-8372044D01*
X10175444Y-8442756D01*
X10246156Y-8442756D01*
X10475756Y-10983256D02*
X10475756Y-10912544D01*
X10405044Y-10912544D01*
X10405044Y-10983256D01*
X10475756Y-10983256D01*
X10475756Y-11237256D02*
X10475756Y-11166544D01*
X10405044Y-11166544D01*
X10405044Y-11237256D01*
X10475756Y-11237256D01*
X10500156Y-8442756D02*
X10500156Y-8372044D01*
X10429444Y-8372044D01*
X10429444Y-8442756D01*
X10500156Y-8442756D01*
X10729756Y-10983256D02*
X10729756Y-10912544D01*
X10659044Y-10912544D01*
X10659044Y-10983256D01*
X10729756Y-10983256D01*
X10729756Y-11237256D02*
X10729756Y-11166544D01*
X10659044Y-11166544D01*
X10659044Y-11237256D01*
X10729756Y-11237256D01*
X10982756Y-8544356D02*
X10982756Y-8473644D01*
X10912044Y-8473644D01*
X10912044Y-8544356D01*
X10982756Y-8544356D01*
X10982756Y-8798356D02*
X10982756Y-8727644D01*
X10912044Y-8727644D01*
X10912044Y-8798356D01*
X10982756Y-8798356D01*
X10982756Y-9052356D02*
X10982756Y-8981644D01*
X10912044Y-8981644D01*
X10912044Y-9052356D01*
X10982756Y-9052356D01*
X10982756Y-9306356D02*
X10982756Y-9235644D01*
X10912044Y-9235644D01*
X10912044Y-9306356D01*
X10982756Y-9306356D01*
X10982756Y-9560356D02*
X10982756Y-9489644D01*
X10912044Y-9489644D01*
X10912044Y-9560356D01*
X10982756Y-9560356D01*
X10982756Y-9814356D02*
X10982756Y-9743644D01*
X10912044Y-9743644D01*
X10912044Y-9814356D01*
X10982756Y-9814356D01*
X10982756Y-10068356D02*
X10982756Y-9997644D01*
X10912044Y-9997644D01*
X10912044Y-10068356D01*
X10982756Y-10068356D01*
X10982756Y-10322356D02*
X10982756Y-10251644D01*
X10912044Y-10251644D01*
X10912044Y-10322356D01*
X10982756Y-10322356D01*
X10982756Y-10576356D02*
X10982756Y-10505644D01*
X10912044Y-10505644D01*
X10912044Y-10576356D01*
X10982756Y-10576356D01*
X10983756Y-10983256D02*
X10983756Y-10912544D01*
X10913044Y-10912544D01*
X10913044Y-10983256D01*
X10983756Y-10983256D01*
X10983756Y-11237256D02*
X10983756Y-11166544D01*
X10913044Y-11166544D01*
X10913044Y-11237256D01*
X10983756Y-11237256D01*
X11236756Y-8544356D02*
X11236756Y-8473644D01*
X11166044Y-8473644D01*
X11166044Y-8544356D01*
X11236756Y-8544356D01*
X11236756Y-8798356D02*
X11236756Y-8727644D01*
X11166044Y-8727644D01*
X11166044Y-8798356D01*
X11236756Y-8798356D01*
X11236756Y-9052356D02*
X11236756Y-8981644D01*
X11166044Y-8981644D01*
X11166044Y-9052356D01*
X11236756Y-9052356D01*
X11236756Y-9306356D02*
X11236756Y-9235644D01*
X11166044Y-9235644D01*
X11166044Y-9306356D01*
X11236756Y-9306356D01*
X11236756Y-9560356D02*
X11236756Y-9489644D01*
X11166044Y-9489644D01*
X11166044Y-9560356D01*
X11236756Y-9560356D01*
X11236756Y-9814356D02*
X11236756Y-9743644D01*
X11166044Y-9743644D01*
X11166044Y-9814356D01*
X11236756Y-9814356D01*
X11236756Y-10068356D02*
X11236756Y-9997644D01*
X11166044Y-9997644D01*
X11166044Y-10068356D01*
X11236756Y-10068356D01*
X11236756Y-10322356D02*
X11236756Y-10251644D01*
X11166044Y-10251644D01*
X11166044Y-10322356D01*
X11236756Y-10322356D01*
X11236756Y-10576356D02*
X11236756Y-10505644D01*
X11166044Y-10505644D01*
X11166044Y-10576356D01*
X11236756Y-10576356D01*
X11237756Y-10983256D02*
X11237756Y-10912544D01*
X11167044Y-10912544D01*
X11167044Y-10983256D01*
X11237756Y-10983256D01*
X11237756Y-11237256D02*
X11237756Y-11166544D01*
X11167044Y-11166544D01*
X11167044Y-11237256D01*
X11237756Y-11237256D01*
D11*
X7820543Y-11796914D02*
X7820543Y-11596914D01*
X7868162Y-11596914D01*
X7896733Y-11606438D01*
X7915781Y-11625486D01*
X7925304Y-11644533D01*
X7934828Y-11682629D01*
X7934828Y-11711200D01*
X7925304Y-11749295D01*
X7915781Y-11768343D01*
X7896733Y-11787390D01*
X7868162Y-11796914D01*
X7820543Y-11796914D01*
X8020543Y-11796914D02*
X8020543Y-11663581D01*
X8020543Y-11701676D02*
X8030066Y-11682629D01*
X8039590Y-11673105D01*
X8058638Y-11663581D01*
X8077685Y-11663581D01*
X8144352Y-11796914D02*
X8144352Y-11663581D01*
X8144352Y-11596914D02*
X8134828Y-11606438D01*
X8144352Y-11615962D01*
X8153876Y-11606438D01*
X8144352Y-11596914D01*
X8144352Y-11615962D01*
X8268162Y-11796914D02*
X8249114Y-11787390D01*
X8239590Y-11768343D01*
X8239590Y-11596914D01*
X8372924Y-11796914D02*
X8353876Y-11787390D01*
X8344352Y-11768343D01*
X8344352Y-11596914D01*
X8601495Y-11796914D02*
X8601495Y-11596914D01*
X8668162Y-11739771D01*
X8734828Y-11596914D01*
X8734828Y-11796914D01*
X8915781Y-11796914D02*
X8915781Y-11692152D01*
X8906257Y-11673105D01*
X8887209Y-11663581D01*
X8849114Y-11663581D01*
X8830066Y-11673105D01*
X8915781Y-11787390D02*
X8896733Y-11796914D01*
X8849114Y-11796914D01*
X8830066Y-11787390D01*
X8820543Y-11768343D01*
X8820543Y-11749295D01*
X8830066Y-11730248D01*
X8849114Y-11720724D01*
X8896733Y-11720724D01*
X8915781Y-11711200D01*
X9011019Y-11663581D02*
X9011019Y-11863581D01*
X9011019Y-11673105D02*
X9030066Y-11663581D01*
X9068162Y-11663581D01*
X9087209Y-11673105D01*
X9096733Y-11682629D01*
X9106257Y-11701676D01*
X9106257Y-11758819D01*
X9096733Y-11777867D01*
X9087209Y-11787390D01*
X9068162Y-11796914D01*
X9030066Y-11796914D01*
X9011019Y-11787390D01*
X9191971Y-11777867D02*
X9201495Y-11787390D01*
X9191971Y-11796914D01*
X9182447Y-11787390D01*
X9191971Y-11777867D01*
X9191971Y-11796914D01*
X9191971Y-11673105D02*
X9201495Y-11682629D01*
X9191971Y-11692152D01*
X9182447Y-11682629D01*
X9191971Y-11673105D01*
X9191971Y-11692152D01*
D12*
X7532924Y-12111438D02*
X7562924Y-12141438D01*
X7562924Y-12111438D02*
X7532924Y-12141438D01*
D11*
X7858638Y-12016914D02*
X7877685Y-12016914D01*
X7896733Y-12026438D01*
X7906257Y-12035962D01*
X7915781Y-12055010D01*
X7925304Y-12093105D01*
X7925304Y-12140724D01*
X7915781Y-12178819D01*
X7906257Y-12197867D01*
X7896733Y-12207390D01*
X7877685Y-12216914D01*
X7858638Y-12216914D01*
X7839590Y-12207390D01*
X7830066Y-12197867D01*
X7820543Y-12178819D01*
X7811019Y-12140724D01*
X7811019Y-12093105D01*
X7820543Y-12055010D01*
X7830066Y-12035962D01*
X7839590Y-12026438D01*
X7858638Y-12016914D01*
X8011019Y-12197867D02*
X8020543Y-12207390D01*
X8011019Y-12216914D01*
X8001495Y-12207390D01*
X8011019Y-12197867D01*
X8011019Y-12216914D01*
X8087209Y-12016914D02*
X8211019Y-12016914D01*
X8144352Y-12093105D01*
X8172924Y-12093105D01*
X8191971Y-12102629D01*
X8201495Y-12112152D01*
X8211019Y-12131200D01*
X8211019Y-12178819D01*
X8201495Y-12197867D01*
X8191971Y-12207390D01*
X8172924Y-12216914D01*
X8115781Y-12216914D01*
X8096733Y-12207390D01*
X8087209Y-12197867D01*
X8334828Y-12016914D02*
X8353876Y-12016914D01*
X8372924Y-12026438D01*
X8382447Y-12035962D01*
X8391971Y-12055010D01*
X8401495Y-12093105D01*
X8401495Y-12140724D01*
X8391971Y-12178819D01*
X8382447Y-12197867D01*
X8372924Y-12207390D01*
X8353876Y-12216914D01*
X8334828Y-12216914D01*
X8315781Y-12207390D01*
X8306257Y-12197867D01*
X8296733Y-12178819D01*
X8287209Y-12140724D01*
X8287209Y-12093105D01*
X8296733Y-12055010D01*
X8306257Y-12035962D01*
X8315781Y-12026438D01*
X8334828Y-12016914D01*
X8525305Y-12016914D02*
X8544352Y-12016914D01*
X8563400Y-12026438D01*
X8572924Y-12035962D01*
X8582447Y-12055010D01*
X8591971Y-12093105D01*
X8591971Y-12140724D01*
X8582447Y-12178819D01*
X8572924Y-12197867D01*
X8563400Y-12207390D01*
X8544352Y-12216914D01*
X8525305Y-12216914D01*
X8506257Y-12207390D01*
X8496733Y-12197867D01*
X8487209Y-12178819D01*
X8477686Y-12140724D01*
X8477686Y-12093105D01*
X8487209Y-12055010D01*
X8496733Y-12035962D01*
X8506257Y-12026438D01*
X8525305Y-12016914D01*
X8677686Y-12216914D02*
X8677686Y-12083581D01*
X8677686Y-12102629D02*
X8687209Y-12093105D01*
X8706257Y-12083581D01*
X8734828Y-12083581D01*
X8753876Y-12093105D01*
X8763400Y-12112152D01*
X8763400Y-12216914D01*
X8763400Y-12112152D02*
X8772924Y-12093105D01*
X8791971Y-12083581D01*
X8820543Y-12083581D01*
X8839590Y-12093105D01*
X8849114Y-12112152D01*
X8849114Y-12216914D01*
X8944352Y-12216914D02*
X8944352Y-12083581D01*
X8944352Y-12102629D02*
X8953876Y-12093105D01*
X8972924Y-12083581D01*
X9001495Y-12083581D01*
X9020543Y-12093105D01*
X9030066Y-12112152D01*
X9030066Y-12216914D01*
X9030066Y-12112152D02*
X9039590Y-12093105D01*
X9058638Y-12083581D01*
X9087209Y-12083581D01*
X9106257Y-12093105D01*
X9115781Y-12112152D01*
X9115781Y-12216914D01*
X9506257Y-12007390D02*
X9334828Y-12264533D01*
X9763400Y-12016914D02*
X9782447Y-12016914D01*
X9801495Y-12026438D01*
X9811019Y-12035962D01*
X9820543Y-12055010D01*
X9830066Y-12093105D01*
X9830066Y-12140724D01*
X9820543Y-12178819D01*
X9811019Y-12197867D01*
X9801495Y-12207390D01*
X9782447Y-12216914D01*
X9763400Y-12216914D01*
X9744352Y-12207390D01*
X9734828Y-12197867D01*
X9725305Y-12178819D01*
X9715781Y-12140724D01*
X9715781Y-12093105D01*
X9725305Y-12055010D01*
X9734828Y-12035962D01*
X9744352Y-12026438D01*
X9763400Y-12016914D01*
X9915781Y-12197867D02*
X9925305Y-12207390D01*
X9915781Y-12216914D01*
X9906257Y-12207390D01*
X9915781Y-12197867D01*
X9915781Y-12216914D01*
X10049114Y-12016914D02*
X10068162Y-12016914D01*
X10087209Y-12026438D01*
X10096733Y-12035962D01*
X10106257Y-12055010D01*
X10115781Y-12093105D01*
X10115781Y-12140724D01*
X10106257Y-12178819D01*
X10096733Y-12197867D01*
X10087209Y-12207390D01*
X10068162Y-12216914D01*
X10049114Y-12216914D01*
X10030066Y-12207390D01*
X10020543Y-12197867D01*
X10011019Y-12178819D01*
X10001495Y-12140724D01*
X10001495Y-12093105D01*
X10011019Y-12055010D01*
X10020543Y-12035962D01*
X10030066Y-12026438D01*
X10049114Y-12016914D01*
X10306257Y-12216914D02*
X10191971Y-12216914D01*
X10249114Y-12216914D02*
X10249114Y-12016914D01*
X10230066Y-12045486D01*
X10211019Y-12064533D01*
X10191971Y-12074057D01*
X10496733Y-12216914D02*
X10382447Y-12216914D01*
X10439590Y-12216914D02*
X10439590Y-12016914D01*
X10420543Y-12045486D01*
X10401495Y-12064533D01*
X10382447Y-12074057D01*
X10611019Y-12102629D02*
X10591971Y-12093105D01*
X10582447Y-12083581D01*
X10572924Y-12064533D01*
X10572924Y-12055010D01*
X10582447Y-12035962D01*
X10591971Y-12026438D01*
X10611019Y-12016914D01*
X10649114Y-12016914D01*
X10668162Y-12026438D01*
X10677686Y-12035962D01*
X10687209Y-12055010D01*
X10687209Y-12064533D01*
X10677686Y-12083581D01*
X10668162Y-12093105D01*
X10649114Y-12102629D01*
X10611019Y-12102629D01*
X10591971Y-12112152D01*
X10582447Y-12121676D01*
X10572924Y-12140724D01*
X10572924Y-12178819D01*
X10582447Y-12197867D01*
X10591971Y-12207390D01*
X10611019Y-12216914D01*
X10649114Y-12216914D01*
X10668162Y-12207390D01*
X10677686Y-12197867D01*
X10687209Y-12178819D01*
X10687209Y-12140724D01*
X10677686Y-12121676D01*
X10668162Y-12112152D01*
X10649114Y-12102629D01*
X10763400Y-12016914D02*
X10763400Y-12055010D01*
X10839590Y-12016914D02*
X10839590Y-12055010D01*
X11134828Y-12293105D02*
X11125305Y-12283581D01*
X11106257Y-12255010D01*
X11096733Y-12235962D01*
X11087209Y-12207390D01*
X11077686Y-12159771D01*
X11077686Y-12121676D01*
X11087209Y-12074057D01*
X11096733Y-12045486D01*
X11106257Y-12026438D01*
X11125305Y-11997867D01*
X11134828Y-11988343D01*
X11296733Y-12083581D02*
X11296733Y-12216914D01*
X11249114Y-12007390D02*
X11201495Y-12150248D01*
X11325304Y-12150248D01*
X11496733Y-12016914D02*
X11401495Y-12016914D01*
X11391971Y-12112152D01*
X11401495Y-12102629D01*
X11420543Y-12093105D01*
X11468162Y-12093105D01*
X11487209Y-12102629D01*
X11496733Y-12112152D01*
X11506257Y-12131200D01*
X11506257Y-12178819D01*
X11496733Y-12197867D01*
X11487209Y-12207390D01*
X11468162Y-12216914D01*
X11420543Y-12216914D01*
X11401495Y-12207390D01*
X11391971Y-12197867D01*
X11744352Y-12216914D02*
X11744352Y-12016914D01*
X11830066Y-12216914D02*
X11830066Y-12112152D01*
X11820543Y-12093105D01*
X11801495Y-12083581D01*
X11772923Y-12083581D01*
X11753876Y-12093105D01*
X11744352Y-12102629D01*
X11953876Y-12216914D02*
X11934828Y-12207390D01*
X11925304Y-12197867D01*
X11915781Y-12178819D01*
X11915781Y-12121676D01*
X11925304Y-12102629D01*
X11934828Y-12093105D01*
X11953876Y-12083581D01*
X11982447Y-12083581D01*
X12001495Y-12093105D01*
X12011019Y-12102629D01*
X12020543Y-12121676D01*
X12020543Y-12178819D01*
X12011019Y-12197867D01*
X12001495Y-12207390D01*
X11982447Y-12216914D01*
X11953876Y-12216914D01*
X12134828Y-12216914D02*
X12115781Y-12207390D01*
X12106257Y-12188343D01*
X12106257Y-12016914D01*
X12287209Y-12207390D02*
X12268162Y-12216914D01*
X12230066Y-12216914D01*
X12211019Y-12207390D01*
X12201495Y-12188343D01*
X12201495Y-12112152D01*
X12211019Y-12093105D01*
X12230066Y-12083581D01*
X12268162Y-12083581D01*
X12287209Y-12093105D01*
X12296733Y-12112152D01*
X12296733Y-12131200D01*
X12201495Y-12150248D01*
X12372923Y-12207390D02*
X12391971Y-12216914D01*
X12430066Y-12216914D01*
X12449114Y-12207390D01*
X12458638Y-12188343D01*
X12458638Y-12178819D01*
X12449114Y-12159771D01*
X12430066Y-12150248D01*
X12401495Y-12150248D01*
X12382447Y-12140724D01*
X12372923Y-12121676D01*
X12372923Y-12112152D01*
X12382447Y-12093105D01*
X12401495Y-12083581D01*
X12430066Y-12083581D01*
X12449114Y-12093105D01*
X12525304Y-12293105D02*
X12534828Y-12283581D01*
X12553876Y-12255010D01*
X12563400Y-12235962D01*
X12572923Y-12207390D01*
X12582447Y-12159771D01*
X12582447Y-12121676D01*
X12572923Y-12074057D01*
X12563400Y-12045486D01*
X12553876Y-12026438D01*
X12534828Y-11997867D01*
X12525304Y-11988343D01*
D13*
X7562924Y-12390438D02*
G75*
G03*
X7562924Y-12390438I-30000J0D01*
G01*
D11*
X7858638Y-12280914D02*
X7877685Y-12280914D01*
X7896733Y-12290438D01*
X7906257Y-12299962D01*
X7915781Y-12319010D01*
X7925304Y-12357105D01*
X7925304Y-12404724D01*
X7915781Y-12442819D01*
X7906257Y-12461867D01*
X7896733Y-12471390D01*
X7877685Y-12480914D01*
X7858638Y-12480914D01*
X7839590Y-12471390D01*
X7830066Y-12461867D01*
X7820543Y-12442819D01*
X7811019Y-12404724D01*
X7811019Y-12357105D01*
X7820543Y-12319010D01*
X7830066Y-12299962D01*
X7839590Y-12290438D01*
X7858638Y-12280914D01*
X8011019Y-12461867D02*
X8020543Y-12471390D01*
X8011019Y-12480914D01*
X8001495Y-12471390D01*
X8011019Y-12461867D01*
X8011019Y-12480914D01*
X8191971Y-12280914D02*
X8153876Y-12280914D01*
X8134828Y-12290438D01*
X8125304Y-12299962D01*
X8106257Y-12328533D01*
X8096733Y-12366629D01*
X8096733Y-12442819D01*
X8106257Y-12461867D01*
X8115781Y-12471390D01*
X8134828Y-12480914D01*
X8172924Y-12480914D01*
X8191971Y-12471390D01*
X8201495Y-12461867D01*
X8211019Y-12442819D01*
X8211019Y-12395200D01*
X8201495Y-12376152D01*
X8191971Y-12366629D01*
X8172924Y-12357105D01*
X8134828Y-12357105D01*
X8115781Y-12366629D01*
X8106257Y-12376152D01*
X8096733Y-12395200D01*
X8334828Y-12280914D02*
X8353876Y-12280914D01*
X8372924Y-12290438D01*
X8382447Y-12299962D01*
X8391971Y-12319010D01*
X8401495Y-12357105D01*
X8401495Y-12404724D01*
X8391971Y-12442819D01*
X8382447Y-12461867D01*
X8372924Y-12471390D01*
X8353876Y-12480914D01*
X8334828Y-12480914D01*
X8315781Y-12471390D01*
X8306257Y-12461867D01*
X8296733Y-12442819D01*
X8287209Y-12404724D01*
X8287209Y-12357105D01*
X8296733Y-12319010D01*
X8306257Y-12299962D01*
X8315781Y-12290438D01*
X8334828Y-12280914D01*
X8525305Y-12280914D02*
X8544352Y-12280914D01*
X8563400Y-12290438D01*
X8572924Y-12299962D01*
X8582447Y-12319010D01*
X8591971Y-12357105D01*
X8591971Y-12404724D01*
X8582447Y-12442819D01*
X8572924Y-12461867D01*
X8563400Y-12471390D01*
X8544352Y-12480914D01*
X8525305Y-12480914D01*
X8506257Y-12471390D01*
X8496733Y-12461867D01*
X8487209Y-12442819D01*
X8477686Y-12404724D01*
X8477686Y-12357105D01*
X8487209Y-12319010D01*
X8496733Y-12299962D01*
X8506257Y-12290438D01*
X8525305Y-12280914D01*
X8677686Y-12480914D02*
X8677686Y-12347581D01*
X8677686Y-12366629D02*
X8687209Y-12357105D01*
X8706257Y-12347581D01*
X8734828Y-12347581D01*
X8753876Y-12357105D01*
X8763400Y-12376152D01*
X8763400Y-12480914D01*
X8763400Y-12376152D02*
X8772924Y-12357105D01*
X8791971Y-12347581D01*
X8820543Y-12347581D01*
X8839590Y-12357105D01*
X8849114Y-12376152D01*
X8849114Y-12480914D01*
X8944352Y-12480914D02*
X8944352Y-12347581D01*
X8944352Y-12366629D02*
X8953876Y-12357105D01*
X8972924Y-12347581D01*
X9001495Y-12347581D01*
X9020543Y-12357105D01*
X9030066Y-12376152D01*
X9030066Y-12480914D01*
X9030066Y-12376152D02*
X9039590Y-12357105D01*
X9058638Y-12347581D01*
X9087209Y-12347581D01*
X9106257Y-12357105D01*
X9115781Y-12376152D01*
X9115781Y-12480914D01*
X9506257Y-12271390D02*
X9334828Y-12528533D01*
X9763400Y-12280914D02*
X9782447Y-12280914D01*
X9801495Y-12290438D01*
X9811019Y-12299962D01*
X9820543Y-12319010D01*
X9830066Y-12357105D01*
X9830066Y-12404724D01*
X9820543Y-12442819D01*
X9811019Y-12461867D01*
X9801495Y-12471390D01*
X9782447Y-12480914D01*
X9763400Y-12480914D01*
X9744352Y-12471390D01*
X9734828Y-12461867D01*
X9725305Y-12442819D01*
X9715781Y-12404724D01*
X9715781Y-12357105D01*
X9725305Y-12319010D01*
X9734828Y-12299962D01*
X9744352Y-12290438D01*
X9763400Y-12280914D01*
X9915781Y-12461867D02*
X9925305Y-12471390D01*
X9915781Y-12480914D01*
X9906257Y-12471390D01*
X9915781Y-12461867D01*
X9915781Y-12480914D01*
X10049114Y-12280914D02*
X10068162Y-12280914D01*
X10087209Y-12290438D01*
X10096733Y-12299962D01*
X10106257Y-12319010D01*
X10115781Y-12357105D01*
X10115781Y-12404724D01*
X10106257Y-12442819D01*
X10096733Y-12461867D01*
X10087209Y-12471390D01*
X10068162Y-12480914D01*
X10049114Y-12480914D01*
X10030066Y-12471390D01*
X10020543Y-12461867D01*
X10011019Y-12442819D01*
X10001495Y-12404724D01*
X10001495Y-12357105D01*
X10011019Y-12319010D01*
X10020543Y-12299962D01*
X10030066Y-12290438D01*
X10049114Y-12280914D01*
X10191971Y-12299962D02*
X10201495Y-12290438D01*
X10220543Y-12280914D01*
X10268162Y-12280914D01*
X10287209Y-12290438D01*
X10296733Y-12299962D01*
X10306257Y-12319010D01*
X10306257Y-12338057D01*
X10296733Y-12366629D01*
X10182447Y-12480914D01*
X10306257Y-12480914D01*
X10372924Y-12280914D02*
X10496733Y-12280914D01*
X10430066Y-12357105D01*
X10458638Y-12357105D01*
X10477686Y-12366629D01*
X10487209Y-12376152D01*
X10496733Y-12395200D01*
X10496733Y-12442819D01*
X10487209Y-12461867D01*
X10477686Y-12471390D01*
X10458638Y-12480914D01*
X10401495Y-12480914D01*
X10382447Y-12471390D01*
X10372924Y-12461867D01*
X10668162Y-12280914D02*
X10630066Y-12280914D01*
X10611019Y-12290438D01*
X10601495Y-12299962D01*
X10582447Y-12328533D01*
X10572924Y-12366629D01*
X10572924Y-12442819D01*
X10582447Y-12461867D01*
X10591971Y-12471390D01*
X10611019Y-12480914D01*
X10649114Y-12480914D01*
X10668162Y-12471390D01*
X10677686Y-12461867D01*
X10687209Y-12442819D01*
X10687209Y-12395200D01*
X10677686Y-12376152D01*
X10668162Y-12366629D01*
X10649114Y-12357105D01*
X10611019Y-12357105D01*
X10591971Y-12366629D01*
X10582447Y-12376152D01*
X10572924Y-12395200D01*
X10763400Y-12280914D02*
X10763400Y-12319010D01*
X10839590Y-12280914D02*
X10839590Y-12319010D01*
X11134828Y-12557105D02*
X11125305Y-12547581D01*
X11106257Y-12519010D01*
X11096733Y-12499962D01*
X11087209Y-12471390D01*
X11077686Y-12423771D01*
X11077686Y-12385676D01*
X11087209Y-12338057D01*
X11096733Y-12309486D01*
X11106257Y-12290438D01*
X11125305Y-12261867D01*
X11134828Y-12252343D01*
X11249114Y-12280914D02*
X11268162Y-12280914D01*
X11287209Y-12290438D01*
X11296733Y-12299962D01*
X11306257Y-12319010D01*
X11315781Y-12357105D01*
X11315781Y-12404724D01*
X11306257Y-12442819D01*
X11296733Y-12461867D01*
X11287209Y-12471390D01*
X11268162Y-12480914D01*
X11249114Y-12480914D01*
X11230066Y-12471390D01*
X11220543Y-12461867D01*
X11211019Y-12442819D01*
X11201495Y-12404724D01*
X11201495Y-12357105D01*
X11211019Y-12319010D01*
X11220543Y-12299962D01*
X11230066Y-12290438D01*
X11249114Y-12280914D01*
X11553876Y-12480914D02*
X11553876Y-12280914D01*
X11639590Y-12480914D02*
X11639590Y-12376152D01*
X11630066Y-12357105D01*
X11611019Y-12347581D01*
X11582447Y-12347581D01*
X11563400Y-12357105D01*
X11553876Y-12366629D01*
X11763400Y-12480914D02*
X11744352Y-12471390D01*
X11734828Y-12461867D01*
X11725304Y-12442819D01*
X11725304Y-12385676D01*
X11734828Y-12366629D01*
X11744352Y-12357105D01*
X11763400Y-12347581D01*
X11791971Y-12347581D01*
X11811019Y-12357105D01*
X11820543Y-12366629D01*
X11830066Y-12385676D01*
X11830066Y-12442819D01*
X11820543Y-12461867D01*
X11811019Y-12471390D01*
X11791971Y-12480914D01*
X11763400Y-12480914D01*
X11944352Y-12480914D02*
X11925304Y-12471390D01*
X11915781Y-12452343D01*
X11915781Y-12280914D01*
X12096733Y-12471390D02*
X12077685Y-12480914D01*
X12039590Y-12480914D01*
X12020543Y-12471390D01*
X12011019Y-12452343D01*
X12011019Y-12376152D01*
X12020543Y-12357105D01*
X12039590Y-12347581D01*
X12077685Y-12347581D01*
X12096733Y-12357105D01*
X12106257Y-12376152D01*
X12106257Y-12395200D01*
X12011019Y-12414248D01*
X12182447Y-12471390D02*
X12201495Y-12480914D01*
X12239590Y-12480914D01*
X12258638Y-12471390D01*
X12268162Y-12452343D01*
X12268162Y-12442819D01*
X12258638Y-12423771D01*
X12239590Y-12414248D01*
X12211019Y-12414248D01*
X12191971Y-12404724D01*
X12182447Y-12385676D01*
X12182447Y-12376152D01*
X12191971Y-12357105D01*
X12211019Y-12347581D01*
X12239590Y-12347581D01*
X12258638Y-12357105D01*
X12506257Y-12404724D02*
X12658638Y-12404724D01*
X12582447Y-12480914D02*
X12582447Y-12328533D01*
X12896733Y-12299962D02*
X12906257Y-12290438D01*
X12925304Y-12280914D01*
X12972923Y-12280914D01*
X12991971Y-12290438D01*
X13001495Y-12299962D01*
X13011019Y-12319010D01*
X13011019Y-12338057D01*
X13001495Y-12366629D01*
X12887209Y-12480914D01*
X13011019Y-12480914D01*
X13239590Y-12471390D02*
X13258638Y-12480914D01*
X13296733Y-12480914D01*
X13315781Y-12471390D01*
X13325304Y-12452343D01*
X13325304Y-12442819D01*
X13315781Y-12423771D01*
X13296733Y-12414248D01*
X13268162Y-12414248D01*
X13249114Y-12404724D01*
X13239590Y-12385676D01*
X13239590Y-12376152D01*
X13249114Y-12357105D01*
X13268162Y-12347581D01*
X13296733Y-12347581D01*
X13315781Y-12357105D01*
X13439590Y-12480914D02*
X13420543Y-12471390D01*
X13411019Y-12452343D01*
X13411019Y-12280914D01*
X13544352Y-12480914D02*
X13525304Y-12471390D01*
X13515781Y-12461867D01*
X13506257Y-12442819D01*
X13506257Y-12385676D01*
X13515781Y-12366629D01*
X13525304Y-12357105D01*
X13544352Y-12347581D01*
X13572923Y-12347581D01*
X13591971Y-12357105D01*
X13601495Y-12366629D01*
X13611019Y-12385676D01*
X13611019Y-12442819D01*
X13601495Y-12461867D01*
X13591971Y-12471390D01*
X13572923Y-12480914D01*
X13544352Y-12480914D01*
X13668162Y-12347581D02*
X13744352Y-12347581D01*
X13696733Y-12280914D02*
X13696733Y-12452343D01*
X13706257Y-12471390D01*
X13725304Y-12480914D01*
X13744352Y-12480914D01*
X13801495Y-12471390D02*
X13820543Y-12480914D01*
X13858638Y-12480914D01*
X13877685Y-12471390D01*
X13887209Y-12452343D01*
X13887209Y-12442819D01*
X13877685Y-12423771D01*
X13858638Y-12414248D01*
X13830066Y-12414248D01*
X13811019Y-12404724D01*
X13801495Y-12385676D01*
X13801495Y-12376152D01*
X13811019Y-12357105D01*
X13830066Y-12347581D01*
X13858638Y-12347581D01*
X13877685Y-12357105D01*
X13953876Y-12557105D02*
X13963400Y-12547581D01*
X13982447Y-12519010D01*
X13991971Y-12499962D01*
X14001495Y-12471390D01*
X14011019Y-12423771D01*
X14011019Y-12385676D01*
X14001495Y-12338057D01*
X13991971Y-12309486D01*
X13982447Y-12290438D01*
X13963400Y-12261867D01*
X13953876Y-12252343D01*
D14*
X7520424Y-12611938D02*
X7520424Y-12696938D01*
X7477924Y-12654438D02*
X7562924Y-12654438D01*
D11*
X7858638Y-12544914D02*
X7877685Y-12544914D01*
X7896733Y-12554438D01*
X7906257Y-12563962D01*
X7915781Y-12583010D01*
X7925304Y-12621105D01*
X7925304Y-12668724D01*
X7915781Y-12706819D01*
X7906257Y-12725867D01*
X7896733Y-12735390D01*
X7877685Y-12744914D01*
X7858638Y-12744914D01*
X7839590Y-12735390D01*
X7830066Y-12725867D01*
X7820543Y-12706819D01*
X7811019Y-12668724D01*
X7811019Y-12621105D01*
X7820543Y-12583010D01*
X7830066Y-12563962D01*
X7839590Y-12554438D01*
X7858638Y-12544914D01*
X8011019Y-12725867D02*
X8020543Y-12735390D01*
X8011019Y-12744914D01*
X8001495Y-12735390D01*
X8011019Y-12725867D01*
X8011019Y-12744914D01*
X8134828Y-12630629D02*
X8115781Y-12621105D01*
X8106257Y-12611581D01*
X8096733Y-12592533D01*
X8096733Y-12583010D01*
X8106257Y-12563962D01*
X8115781Y-12554438D01*
X8134828Y-12544914D01*
X8172924Y-12544914D01*
X8191971Y-12554438D01*
X8201495Y-12563962D01*
X8211019Y-12583010D01*
X8211019Y-12592533D01*
X8201495Y-12611581D01*
X8191971Y-12621105D01*
X8172924Y-12630629D01*
X8134828Y-12630629D01*
X8115781Y-12640152D01*
X8106257Y-12649676D01*
X8096733Y-12668724D01*
X8096733Y-12706819D01*
X8106257Y-12725867D01*
X8115781Y-12735390D01*
X8134828Y-12744914D01*
X8172924Y-12744914D01*
X8191971Y-12735390D01*
X8201495Y-12725867D01*
X8211019Y-12706819D01*
X8211019Y-12668724D01*
X8201495Y-12649676D01*
X8191971Y-12640152D01*
X8172924Y-12630629D01*
X8391971Y-12544914D02*
X8296733Y-12544914D01*
X8287209Y-12640152D01*
X8296733Y-12630629D01*
X8315781Y-12621105D01*
X8363400Y-12621105D01*
X8382447Y-12630629D01*
X8391971Y-12640152D01*
X8401495Y-12659200D01*
X8401495Y-12706819D01*
X8391971Y-12725867D01*
X8382447Y-12735390D01*
X8363400Y-12744914D01*
X8315781Y-12744914D01*
X8296733Y-12735390D01*
X8287209Y-12725867D01*
X8525305Y-12544914D02*
X8544352Y-12544914D01*
X8563400Y-12554438D01*
X8572924Y-12563962D01*
X8582447Y-12583010D01*
X8591971Y-12621105D01*
X8591971Y-12668724D01*
X8582447Y-12706819D01*
X8572924Y-12725867D01*
X8563400Y-12735390D01*
X8544352Y-12744914D01*
X8525305Y-12744914D01*
X8506257Y-12735390D01*
X8496733Y-12725867D01*
X8487209Y-12706819D01*
X8477686Y-12668724D01*
X8477686Y-12621105D01*
X8487209Y-12583010D01*
X8496733Y-12563962D01*
X8506257Y-12554438D01*
X8525305Y-12544914D01*
X8677686Y-12744914D02*
X8677686Y-12611581D01*
X8677686Y-12630629D02*
X8687209Y-12621105D01*
X8706257Y-12611581D01*
X8734828Y-12611581D01*
X8753876Y-12621105D01*
X8763400Y-12640152D01*
X8763400Y-12744914D01*
X8763400Y-12640152D02*
X8772924Y-12621105D01*
X8791971Y-12611581D01*
X8820543Y-12611581D01*
X8839590Y-12621105D01*
X8849114Y-12640152D01*
X8849114Y-12744914D01*
X8944352Y-12744914D02*
X8944352Y-12611581D01*
X8944352Y-12630629D02*
X8953876Y-12621105D01*
X8972924Y-12611581D01*
X9001495Y-12611581D01*
X9020543Y-12621105D01*
X9030066Y-12640152D01*
X9030066Y-12744914D01*
X9030066Y-12640152D02*
X9039590Y-12621105D01*
X9058638Y-12611581D01*
X9087209Y-12611581D01*
X9106257Y-12621105D01*
X9115781Y-12640152D01*
X9115781Y-12744914D01*
X9506257Y-12535390D02*
X9334828Y-12792533D01*
X9763400Y-12544914D02*
X9782447Y-12544914D01*
X9801495Y-12554438D01*
X9811019Y-12563962D01*
X9820543Y-12583010D01*
X9830066Y-12621105D01*
X9830066Y-12668724D01*
X9820543Y-12706819D01*
X9811019Y-12725867D01*
X9801495Y-12735390D01*
X9782447Y-12744914D01*
X9763400Y-12744914D01*
X9744352Y-12735390D01*
X9734828Y-12725867D01*
X9725305Y-12706819D01*
X9715781Y-12668724D01*
X9715781Y-12621105D01*
X9725305Y-12583010D01*
X9734828Y-12563962D01*
X9744352Y-12554438D01*
X9763400Y-12544914D01*
X9915781Y-12725867D02*
X9925305Y-12735390D01*
X9915781Y-12744914D01*
X9906257Y-12735390D01*
X9915781Y-12725867D01*
X9915781Y-12744914D01*
X10049114Y-12544914D02*
X10068162Y-12544914D01*
X10087209Y-12554438D01*
X10096733Y-12563962D01*
X10106257Y-12583010D01*
X10115781Y-12621105D01*
X10115781Y-12668724D01*
X10106257Y-12706819D01*
X10096733Y-12725867D01*
X10087209Y-12735390D01*
X10068162Y-12744914D01*
X10049114Y-12744914D01*
X10030066Y-12735390D01*
X10020543Y-12725867D01*
X10011019Y-12706819D01*
X10001495Y-12668724D01*
X10001495Y-12621105D01*
X10011019Y-12583010D01*
X10020543Y-12563962D01*
X10030066Y-12554438D01*
X10049114Y-12544914D01*
X10182447Y-12544914D02*
X10306257Y-12544914D01*
X10239590Y-12621105D01*
X10268162Y-12621105D01*
X10287209Y-12630629D01*
X10296733Y-12640152D01*
X10306257Y-12659200D01*
X10306257Y-12706819D01*
X10296733Y-12725867D01*
X10287209Y-12735390D01*
X10268162Y-12744914D01*
X10211019Y-12744914D01*
X10191971Y-12735390D01*
X10182447Y-12725867D01*
X10372924Y-12544914D02*
X10496733Y-12544914D01*
X10430066Y-12621105D01*
X10458638Y-12621105D01*
X10477686Y-12630629D01*
X10487209Y-12640152D01*
X10496733Y-12659200D01*
X10496733Y-12706819D01*
X10487209Y-12725867D01*
X10477686Y-12735390D01*
X10458638Y-12744914D01*
X10401495Y-12744914D01*
X10382447Y-12735390D01*
X10372924Y-12725867D01*
X10677686Y-12544914D02*
X10582447Y-12544914D01*
X10572924Y-12640152D01*
X10582447Y-12630629D01*
X10601495Y-12621105D01*
X10649114Y-12621105D01*
X10668162Y-12630629D01*
X10677686Y-12640152D01*
X10687209Y-12659200D01*
X10687209Y-12706819D01*
X10677686Y-12725867D01*
X10668162Y-12735390D01*
X10649114Y-12744914D01*
X10601495Y-12744914D01*
X10582447Y-12735390D01*
X10572924Y-12725867D01*
X10763400Y-12544914D02*
X10763400Y-12583010D01*
X10839590Y-12544914D02*
X10839590Y-12583010D01*
X11134828Y-12821105D02*
X11125305Y-12811581D01*
X11106257Y-12783010D01*
X11096733Y-12763962D01*
X11087209Y-12735390D01*
X11077686Y-12687771D01*
X11077686Y-12649676D01*
X11087209Y-12602057D01*
X11096733Y-12573486D01*
X11106257Y-12554438D01*
X11125305Y-12525867D01*
X11134828Y-12516343D01*
X11201495Y-12563962D02*
X11211019Y-12554438D01*
X11230066Y-12544914D01*
X11277685Y-12544914D01*
X11296733Y-12554438D01*
X11306257Y-12563962D01*
X11315781Y-12583010D01*
X11315781Y-12602057D01*
X11306257Y-12630629D01*
X11191971Y-12744914D01*
X11315781Y-12744914D01*
X11553876Y-12744914D02*
X11553876Y-12544914D01*
X11639590Y-12744914D02*
X11639590Y-12640152D01*
X11630066Y-12621105D01*
X11611019Y-12611581D01*
X11582447Y-12611581D01*
X11563400Y-12621105D01*
X11553876Y-12630629D01*
X11763400Y-12744914D02*
X11744352Y-12735390D01*
X11734828Y-12725867D01*
X11725304Y-12706819D01*
X11725304Y-12649676D01*
X11734828Y-12630629D01*
X11744352Y-12621105D01*
X11763400Y-12611581D01*
X11791971Y-12611581D01*
X11811019Y-12621105D01*
X11820543Y-12630629D01*
X11830066Y-12649676D01*
X11830066Y-12706819D01*
X11820543Y-12725867D01*
X11811019Y-12735390D01*
X11791971Y-12744914D01*
X11763400Y-12744914D01*
X11944352Y-12744914D02*
X11925304Y-12735390D01*
X11915781Y-12716343D01*
X11915781Y-12544914D01*
X12096733Y-12735390D02*
X12077685Y-12744914D01*
X12039590Y-12744914D01*
X12020543Y-12735390D01*
X12011019Y-12716343D01*
X12011019Y-12640152D01*
X12020543Y-12621105D01*
X12039590Y-12611581D01*
X12077685Y-12611581D01*
X12096733Y-12621105D01*
X12106257Y-12640152D01*
X12106257Y-12659200D01*
X12011019Y-12678248D01*
X12182447Y-12735390D02*
X12201495Y-12744914D01*
X12239590Y-12744914D01*
X12258638Y-12735390D01*
X12268162Y-12716343D01*
X12268162Y-12706819D01*
X12258638Y-12687771D01*
X12239590Y-12678248D01*
X12211019Y-12678248D01*
X12191971Y-12668724D01*
X12182447Y-12649676D01*
X12182447Y-12640152D01*
X12191971Y-12621105D01*
X12211019Y-12611581D01*
X12239590Y-12611581D01*
X12258638Y-12621105D01*
X12334828Y-12821105D02*
X12344352Y-12811581D01*
X12363400Y-12783010D01*
X12372923Y-12763962D01*
X12382447Y-12735390D01*
X12391971Y-12687771D01*
X12391971Y-12649676D01*
X12382447Y-12602057D01*
X12372923Y-12573486D01*
X12363400Y-12554438D01*
X12344352Y-12525867D01*
X12334828Y-12516343D01*
D10*
X7548279Y-12953794D02*
X7548279Y-12883082D01*
X7477568Y-12883082D01*
X7477568Y-12953794D01*
X7548279Y-12953794D01*
D11*
X7925304Y-13008914D02*
X7811019Y-13008914D01*
X7868162Y-13008914D02*
X7868162Y-12808914D01*
X7849114Y-12837486D01*
X7830066Y-12856533D01*
X7811019Y-12866057D01*
X8011019Y-12989867D02*
X8020543Y-12999390D01*
X8011019Y-13008914D01*
X8001495Y-12999390D01*
X8011019Y-12989867D01*
X8011019Y-13008914D01*
X8144352Y-12808914D02*
X8163400Y-12808914D01*
X8182447Y-12818438D01*
X8191971Y-12827962D01*
X8201495Y-12847010D01*
X8211019Y-12885105D01*
X8211019Y-12932724D01*
X8201495Y-12970819D01*
X8191971Y-12989867D01*
X8182447Y-12999390D01*
X8163400Y-13008914D01*
X8144352Y-13008914D01*
X8125304Y-12999390D01*
X8115781Y-12989867D01*
X8106257Y-12970819D01*
X8096733Y-12932724D01*
X8096733Y-12885105D01*
X8106257Y-12847010D01*
X8115781Y-12827962D01*
X8125304Y-12818438D01*
X8144352Y-12808914D01*
X8334828Y-12808914D02*
X8353876Y-12808914D01*
X8372924Y-12818438D01*
X8382447Y-12827962D01*
X8391971Y-12847010D01*
X8401495Y-12885105D01*
X8401495Y-12932724D01*
X8391971Y-12970819D01*
X8382447Y-12989867D01*
X8372924Y-12999390D01*
X8353876Y-13008914D01*
X8334828Y-13008914D01*
X8315781Y-12999390D01*
X8306257Y-12989867D01*
X8296733Y-12970819D01*
X8287209Y-12932724D01*
X8287209Y-12885105D01*
X8296733Y-12847010D01*
X8306257Y-12827962D01*
X8315781Y-12818438D01*
X8334828Y-12808914D01*
X8525305Y-12808914D02*
X8544352Y-12808914D01*
X8563400Y-12818438D01*
X8572924Y-12827962D01*
X8582447Y-12847010D01*
X8591971Y-12885105D01*
X8591971Y-12932724D01*
X8582447Y-12970819D01*
X8572924Y-12989867D01*
X8563400Y-12999390D01*
X8544352Y-13008914D01*
X8525305Y-13008914D01*
X8506257Y-12999390D01*
X8496733Y-12989867D01*
X8487209Y-12970819D01*
X8477686Y-12932724D01*
X8477686Y-12885105D01*
X8487209Y-12847010D01*
X8496733Y-12827962D01*
X8506257Y-12818438D01*
X8525305Y-12808914D01*
X8677686Y-13008914D02*
X8677686Y-12875581D01*
X8677686Y-12894629D02*
X8687209Y-12885105D01*
X8706257Y-12875581D01*
X8734828Y-12875581D01*
X8753876Y-12885105D01*
X8763400Y-12904152D01*
X8763400Y-13008914D01*
X8763400Y-12904152D02*
X8772924Y-12885105D01*
X8791971Y-12875581D01*
X8820543Y-12875581D01*
X8839590Y-12885105D01*
X8849114Y-12904152D01*
X8849114Y-13008914D01*
X8944352Y-13008914D02*
X8944352Y-12875581D01*
X8944352Y-12894629D02*
X8953876Y-12885105D01*
X8972924Y-12875581D01*
X9001495Y-12875581D01*
X9020543Y-12885105D01*
X9030066Y-12904152D01*
X9030066Y-13008914D01*
X9030066Y-12904152D02*
X9039590Y-12885105D01*
X9058638Y-12875581D01*
X9087209Y-12875581D01*
X9106257Y-12885105D01*
X9115781Y-12904152D01*
X9115781Y-13008914D01*
X9506257Y-12799390D02*
X9334828Y-13056533D01*
X9763400Y-12808914D02*
X9782447Y-12808914D01*
X9801495Y-12818438D01*
X9811019Y-12827962D01*
X9820543Y-12847010D01*
X9830066Y-12885105D01*
X9830066Y-12932724D01*
X9820543Y-12970819D01*
X9811019Y-12989867D01*
X9801495Y-12999390D01*
X9782447Y-13008914D01*
X9763400Y-13008914D01*
X9744352Y-12999390D01*
X9734828Y-12989867D01*
X9725305Y-12970819D01*
X9715781Y-12932724D01*
X9715781Y-12885105D01*
X9725305Y-12847010D01*
X9734828Y-12827962D01*
X9744352Y-12818438D01*
X9763400Y-12808914D01*
X9915781Y-12989867D02*
X9925305Y-12999390D01*
X9915781Y-13008914D01*
X9906257Y-12999390D01*
X9915781Y-12989867D01*
X9915781Y-13008914D01*
X10049114Y-12808914D02*
X10068162Y-12808914D01*
X10087209Y-12818438D01*
X10096733Y-12827962D01*
X10106257Y-12847010D01*
X10115781Y-12885105D01*
X10115781Y-12932724D01*
X10106257Y-12970819D01*
X10096733Y-12989867D01*
X10087209Y-12999390D01*
X10068162Y-13008914D01*
X10049114Y-13008914D01*
X10030066Y-12999390D01*
X10020543Y-12989867D01*
X10011019Y-12970819D01*
X10001495Y-12932724D01*
X10001495Y-12885105D01*
X10011019Y-12847010D01*
X10020543Y-12827962D01*
X10030066Y-12818438D01*
X10049114Y-12808914D01*
X10182447Y-12808914D02*
X10306257Y-12808914D01*
X10239590Y-12885105D01*
X10268162Y-12885105D01*
X10287209Y-12894629D01*
X10296733Y-12904152D01*
X10306257Y-12923200D01*
X10306257Y-12970819D01*
X10296733Y-12989867D01*
X10287209Y-12999390D01*
X10268162Y-13008914D01*
X10211019Y-13008914D01*
X10191971Y-12999390D01*
X10182447Y-12989867D01*
X10401495Y-13008914D02*
X10439590Y-13008914D01*
X10458638Y-12999390D01*
X10468162Y-12989867D01*
X10487209Y-12961295D01*
X10496733Y-12923200D01*
X10496733Y-12847010D01*
X10487209Y-12827962D01*
X10477686Y-12818438D01*
X10458638Y-12808914D01*
X10420543Y-12808914D01*
X10401495Y-12818438D01*
X10391971Y-12827962D01*
X10382447Y-12847010D01*
X10382447Y-12894629D01*
X10391971Y-12913676D01*
X10401495Y-12923200D01*
X10420543Y-12932724D01*
X10458638Y-12932724D01*
X10477686Y-12923200D01*
X10487209Y-12913676D01*
X10496733Y-12894629D01*
X10668162Y-12875581D02*
X10668162Y-13008914D01*
X10620543Y-12799390D02*
X10572924Y-12942248D01*
X10696733Y-12942248D01*
X10763400Y-12808914D02*
X10763400Y-12847010D01*
X10839590Y-12808914D02*
X10839590Y-12847010D01*
X11134828Y-13085105D02*
X11125305Y-13075581D01*
X11106257Y-13047010D01*
X11096733Y-13027962D01*
X11087209Y-12999390D01*
X11077686Y-12951771D01*
X11077686Y-12913676D01*
X11087209Y-12866057D01*
X11096733Y-12837486D01*
X11106257Y-12818438D01*
X11125305Y-12789867D01*
X11134828Y-12780343D01*
X11296733Y-12875581D02*
X11296733Y-13008914D01*
X11249114Y-12799390D02*
X11201495Y-12942248D01*
X11325304Y-12942248D01*
X11439590Y-12808914D02*
X11458638Y-12808914D01*
X11477685Y-12818438D01*
X11487209Y-12827962D01*
X11496733Y-12847010D01*
X11506257Y-12885105D01*
X11506257Y-12932724D01*
X11496733Y-12970819D01*
X11487209Y-12989867D01*
X11477685Y-12999390D01*
X11458638Y-13008914D01*
X11439590Y-13008914D01*
X11420543Y-12999390D01*
X11411019Y-12989867D01*
X11401495Y-12970819D01*
X11391971Y-12932724D01*
X11391971Y-12885105D01*
X11401495Y-12847010D01*
X11411019Y-12827962D01*
X11420543Y-12818438D01*
X11439590Y-12808914D01*
X11744352Y-13008914D02*
X11744352Y-12808914D01*
X11830066Y-13008914D02*
X11830066Y-12904152D01*
X11820543Y-12885105D01*
X11801495Y-12875581D01*
X11772923Y-12875581D01*
X11753876Y-12885105D01*
X11744352Y-12894629D01*
X11953876Y-13008914D02*
X11934828Y-12999390D01*
X11925304Y-12989867D01*
X11915781Y-12970819D01*
X11915781Y-12913676D01*
X11925304Y-12894629D01*
X11934828Y-12885105D01*
X11953876Y-12875581D01*
X11982447Y-12875581D01*
X12001495Y-12885105D01*
X12011019Y-12894629D01*
X12020543Y-12913676D01*
X12020543Y-12970819D01*
X12011019Y-12989867D01*
X12001495Y-12999390D01*
X11982447Y-13008914D01*
X11953876Y-13008914D01*
X12134828Y-13008914D02*
X12115781Y-12999390D01*
X12106257Y-12980343D01*
X12106257Y-12808914D01*
X12287209Y-12999390D02*
X12268162Y-13008914D01*
X12230066Y-13008914D01*
X12211019Y-12999390D01*
X12201495Y-12980343D01*
X12201495Y-12904152D01*
X12211019Y-12885105D01*
X12230066Y-12875581D01*
X12268162Y-12875581D01*
X12287209Y-12885105D01*
X12296733Y-12904152D01*
X12296733Y-12923200D01*
X12201495Y-12942248D01*
X12372923Y-12999390D02*
X12391971Y-13008914D01*
X12430066Y-13008914D01*
X12449114Y-12999390D01*
X12458638Y-12980343D01*
X12458638Y-12970819D01*
X12449114Y-12951771D01*
X12430066Y-12942248D01*
X12401495Y-12942248D01*
X12382447Y-12932724D01*
X12372923Y-12913676D01*
X12372923Y-12904152D01*
X12382447Y-12885105D01*
X12401495Y-12875581D01*
X12430066Y-12875581D01*
X12449114Y-12885105D01*
X12525304Y-13085105D02*
X12534828Y-13075581D01*
X12553876Y-13047010D01*
X12563400Y-13027962D01*
X12572923Y-12999390D01*
X12582447Y-12951771D01*
X12582447Y-12913676D01*
X12572923Y-12866057D01*
X12563400Y-12837486D01*
X12553876Y-12818438D01*
X12534828Y-12789867D01*
X12525304Y-12780343D01*
M02*
