%TF.GenerationSoftware,KiCad,Pcbnew,(6.0.7)*%
%TF.CreationDate,2022-09-12T19:52:28+08:00*%
%TF.ProjectId,STM32Breakout,53544d33-3242-4726-9561-6b6f75742e6b,rev?*%
%TF.SameCoordinates,Original*%
%TF.FileFunction,Drillmap*%
%TF.FilePolarity,Positive*%
%FSLAX45Y45*%
G04 Gerber Fmt 4.5, Leading zero omitted, Abs format (unit mm)*
G04 Created by KiCad (PCBNEW (6.0.7)) date 2022-09-12 19:52:28*
%MOMM*%
%LPD*%
G01*
G04 APERTURE LIST*
%ADD10C,0.100000*%
%ADD11C,0.200000*%
G04 APERTURE END LIST*
D10*
X8813800Y-11480162D02*
X8483600Y-11277600D01*
X7567924Y-11101076D02*
G75*
G03*
X7745724Y-11278876I177796J-4D01*
G01*
X7567924Y-11101076D02*
X7567924Y-8279124D01*
X8126724Y-11278876D02*
X7745724Y-11278876D01*
X7745724Y-8101324D02*
X11278876Y-8102600D01*
X11480803Y-8280400D02*
G75*
G03*
X11278876Y-8102600I-201923J-25760D01*
G01*
X11480800Y-11278876D02*
X11480800Y-8280400D01*
X11278876Y-11481436D02*
G75*
G03*
X11480800Y-11278876I-30356J232186D01*
G01*
X7745724Y-8101324D02*
G75*
G03*
X7567924Y-8279124I-4J-177796D01*
G01*
X8813800Y-11480162D02*
X11278876Y-11481438D01*
X8483600Y-11277600D02*
X8126724Y-11278876D01*
D11*
X7820543Y-11796914D02*
X7820543Y-11596914D01*
X7868162Y-11596914D01*
X7896733Y-11606438D01*
X7915781Y-11625486D01*
X7925304Y-11644533D01*
X7934828Y-11682629D01*
X7934828Y-11711200D01*
X7925304Y-11749295D01*
X7915781Y-11768343D01*
X7896733Y-11787390D01*
X7868162Y-11796914D01*
X7820543Y-11796914D01*
X8020543Y-11796914D02*
X8020543Y-11663581D01*
X8020543Y-11701676D02*
X8030066Y-11682629D01*
X8039590Y-11673105D01*
X8058638Y-11663581D01*
X8077685Y-11663581D01*
X8144352Y-11796914D02*
X8144352Y-11663581D01*
X8144352Y-11596914D02*
X8134828Y-11606438D01*
X8144352Y-11615962D01*
X8153876Y-11606438D01*
X8144352Y-11596914D01*
X8144352Y-11615962D01*
X8268162Y-11796914D02*
X8249114Y-11787390D01*
X8239590Y-11768343D01*
X8239590Y-11596914D01*
X8372924Y-11796914D02*
X8353876Y-11787390D01*
X8344352Y-11768343D01*
X8344352Y-11596914D01*
X8601495Y-11796914D02*
X8601495Y-11596914D01*
X8668162Y-11739771D01*
X8734828Y-11596914D01*
X8734828Y-11796914D01*
X8915781Y-11796914D02*
X8915781Y-11692152D01*
X8906257Y-11673105D01*
X8887209Y-11663581D01*
X8849114Y-11663581D01*
X8830066Y-11673105D01*
X8915781Y-11787390D02*
X8896733Y-11796914D01*
X8849114Y-11796914D01*
X8830066Y-11787390D01*
X8820543Y-11768343D01*
X8820543Y-11749295D01*
X8830066Y-11730248D01*
X8849114Y-11720724D01*
X8896733Y-11720724D01*
X8915781Y-11711200D01*
X9011019Y-11663581D02*
X9011019Y-11863581D01*
X9011019Y-11673105D02*
X9030066Y-11663581D01*
X9068162Y-11663581D01*
X9087209Y-11673105D01*
X9096733Y-11682629D01*
X9106257Y-11701676D01*
X9106257Y-11758819D01*
X9096733Y-11777867D01*
X9087209Y-11787390D01*
X9068162Y-11796914D01*
X9030066Y-11796914D01*
X9011019Y-11787390D01*
X9191971Y-11777867D02*
X9201495Y-11787390D01*
X9191971Y-11796914D01*
X9182447Y-11787390D01*
X9191971Y-11777867D01*
X9191971Y-11796914D01*
X9191971Y-11673105D02*
X9201495Y-11682629D01*
X9191971Y-11692152D01*
X9182447Y-11682629D01*
X9191971Y-11673105D01*
X9191971Y-11692152D01*
M02*
