%TF.GenerationSoftware,KiCad,Pcbnew,(6.0.7)*%
%TF.CreationDate,2022-09-12T19:53:54+08:00*%
%TF.ProjectId,STM32Breakout,53544d33-3242-4726-9561-6b6f75742e6b,rev?*%
%TF.SameCoordinates,Original*%
%TF.FileFunction,Soldermask,Bot*%
%TF.FilePolarity,Negative*%
%FSLAX46Y46*%
G04 Gerber Fmt 4.6, Leading zero omitted, Abs format (unit mm)*
G04 Created by KiCad (PCBNEW (6.0.7)) date 2022-09-12 19:53:54*
%MOMM*%
%LPD*%
G01*
G04 APERTURE LIST*
%ADD10C,1.450000*%
%ADD11O,1.900000X1.200000*%
%ADD12R,1.700000X1.700000*%
%ADD13O,1.700000X1.700000*%
G04 APERTURE END LIST*
D10*
%TO.C,J1*%
X81726500Y-104688000D03*
X81726500Y-109688000D03*
D11*
X79026500Y-103688000D03*
X79026500Y-110688000D03*
%TD*%
D12*
%TO.C,J4*%
X104648000Y-84074000D03*
D13*
X102108000Y-84074000D03*
X99568000Y-84074000D03*
X97028000Y-84074000D03*
%TD*%
D12*
%TO.C,J2*%
X91704000Y-112019000D03*
D13*
X91704000Y-109479000D03*
X94244000Y-112019000D03*
X94244000Y-109479000D03*
X96784000Y-112019000D03*
X96784000Y-109479000D03*
X99324000Y-112019000D03*
X99324000Y-109479000D03*
X101864000Y-112019000D03*
X101864000Y-109479000D03*
X104404000Y-112019000D03*
X104404000Y-109479000D03*
X106944000Y-112019000D03*
X106944000Y-109479000D03*
X109484000Y-112019000D03*
X109484000Y-109479000D03*
X112024000Y-112019000D03*
X112024000Y-109479000D03*
%TD*%
D12*
%TO.C,J3*%
X109474000Y-85090000D03*
D13*
X112014000Y-85090000D03*
X109474000Y-87630000D03*
X112014000Y-87630000D03*
X109474000Y-90170000D03*
X112014000Y-90170000D03*
X109474000Y-92710000D03*
X112014000Y-92710000D03*
X109474000Y-95250000D03*
X112014000Y-95250000D03*
X109474000Y-97790000D03*
X112014000Y-97790000D03*
X109474000Y-100330000D03*
X112014000Y-100330000D03*
X109474000Y-102870000D03*
X112014000Y-102870000D03*
X109474000Y-105410000D03*
X112014000Y-105410000D03*
%TD*%
M02*
