M48
; DRILL file {KiCad (6.0.7)} date Mon Sep 12 19:53:59 2022
; FORMAT={-:-/ absolute / metric / decimal}
; #@! TF.CreationDate,2022-09-12T19:53:59+08:00
; #@! TF.GenerationSoftware,Kicad,Pcbnew,(6.0.7)
; #@! TF.FileFunction,Plated,1,2,PTH
FMAT,2
METRIC
; #@! TA.AperFunction,Plated,PTH,ViaDrill
T1C0.300
; #@! TA.AperFunction,Plated,PTH,ComponentDrill
T2C0.600
; #@! TA.AperFunction,Plated,PTH,ComponentDrill
T3C0.850
; #@! TA.AperFunction,Plated,PTH,ComponentDrill
T4C1.000
%
G90
G05
T1
X81.788Y-101.6
X85.09Y-82.042
X85.09Y-95.504
X85.344Y-83.312
X85.344Y-86.868
X86.106Y-110.801
X87.63Y-110.236
X89.154Y-113.792
X91.948Y-93.472
X92.202Y-99.568
X93.218Y-92.964
X93.472Y-89.916
X93.98Y-88.392
X94.234Y-101.092
X94.563Y-104.065
X95.25Y-103.332
X95.758Y-89.662
X96.012Y-99.568
X96.208Y-104.151
X96.774Y-89.662
X96.774Y-98.044
X96.774Y-103.332
X97.79Y-104.14
X98.273Y-89.713
X98.298Y-103.378
X99.314Y-89.108
X99.535Y-103.722
X100.076Y-89.662
X100.584Y-95.504
X100.584Y-96.52
X100.838Y-89.108
X101.6Y-89.662
X101.6Y-103.632
X102.435Y-89.941
X102.87Y-101.6
X103.378Y-92.202
X104.902Y-102.108
X106.172Y-93.472
X106.172Y-96.012
X106.172Y-97.028
X106.172Y-99.06
X106.172Y-100.076
X106.172Y-101.092
X106.172Y-102.108
X106.192Y-98.024
T3
X81.727Y-104.688
X81.727Y-109.688
T4
X91.704Y-109.479
X91.704Y-112.019
X94.244Y-109.479
X94.244Y-112.019
X96.784Y-109.479
X96.784Y-112.019
X97.028Y-84.074
X99.324Y-109.479
X99.324Y-112.019
X99.568Y-84.074
X101.864Y-109.479
X101.864Y-112.019
X102.108Y-84.074
X104.404Y-109.479
X104.404Y-112.019
X104.648Y-84.074
X106.944Y-109.479
X106.944Y-112.019
X109.474Y-85.09
X109.474Y-87.63
X109.474Y-90.17
X109.474Y-92.71
X109.474Y-95.25
X109.474Y-97.79
X109.474Y-100.33
X109.474Y-102.87
X109.474Y-105.41
X109.484Y-109.479
X109.484Y-112.019
X112.014Y-85.09
X112.014Y-87.63
X112.014Y-90.17
X112.014Y-92.71
X112.014Y-95.25
X112.014Y-97.79
X112.014Y-100.33
X112.014Y-102.87
X112.014Y-105.41
X112.024Y-109.479
X112.024Y-112.019
T2
G00X78.676Y-103.688
M15
G01X79.376Y-103.688
M16
G05
G00X79.376Y-110.688
M15
G01X78.676Y-110.688
M16
G05
T0
M30
