%TF.GenerationSoftware,KiCad,Pcbnew,(6.0.7)*%
%TF.CreationDate,2022-09-12T19:53:53+08:00*%
%TF.ProjectId,STM32Breakout,53544d33-3242-4726-9561-6b6f75742e6b,rev?*%
%TF.SameCoordinates,Original*%
%TF.FileFunction,Copper,L1,Top*%
%TF.FilePolarity,Positive*%
%FSLAX46Y46*%
G04 Gerber Fmt 4.6, Leading zero omitted, Abs format (unit mm)*
G04 Created by KiCad (PCBNEW (6.0.7)) date 2022-09-12 19:53:53*
%MOMM*%
%LPD*%
G01*
G04 APERTURE LIST*
G04 Aperture macros list*
%AMRoundRect*
0 Rectangle with rounded corners*
0 $1 Rounding radius*
0 $2 $3 $4 $5 $6 $7 $8 $9 X,Y pos of 4 corners*
0 Add a 4 corners polygon primitive as box body*
4,1,4,$2,$3,$4,$5,$6,$7,$8,$9,$2,$3,0*
0 Add four circle primitives for the rounded corners*
1,1,$1+$1,$2,$3*
1,1,$1+$1,$4,$5*
1,1,$1+$1,$6,$7*
1,1,$1+$1,$8,$9*
0 Add four rect primitives between the rounded corners*
20,1,$1+$1,$2,$3,$4,$5,0*
20,1,$1+$1,$4,$5,$6,$7,0*
20,1,$1+$1,$6,$7,$8,$9,0*
20,1,$1+$1,$8,$9,$2,$3,0*%
G04 Aperture macros list end*
%TA.AperFunction,SMDPad,CuDef*%
%ADD10RoundRect,0.140000X0.140000X0.170000X-0.140000X0.170000X-0.140000X-0.170000X0.140000X-0.170000X0*%
%TD*%
%TA.AperFunction,SMDPad,CuDef*%
%ADD11RoundRect,0.218750X-0.218750X-0.381250X0.218750X-0.381250X0.218750X0.381250X-0.218750X0.381250X0*%
%TD*%
%TA.AperFunction,SMDPad,CuDef*%
%ADD12RoundRect,0.140000X0.170000X-0.140000X0.170000X0.140000X-0.170000X0.140000X-0.170000X-0.140000X0*%
%TD*%
%TA.AperFunction,SMDPad,CuDef*%
%ADD13RoundRect,0.218750X0.256250X-0.218750X0.256250X0.218750X-0.256250X0.218750X-0.256250X-0.218750X0*%
%TD*%
%TA.AperFunction,SMDPad,CuDef*%
%ADD14RoundRect,0.135000X0.135000X0.185000X-0.135000X0.185000X-0.135000X-0.185000X0.135000X-0.185000X0*%
%TD*%
%TA.AperFunction,SMDPad,CuDef*%
%ADD15RoundRect,0.250000X0.650000X-0.325000X0.650000X0.325000X-0.650000X0.325000X-0.650000X-0.325000X0*%
%TD*%
%TA.AperFunction,SMDPad,CuDef*%
%ADD16R,1.350000X0.400000*%
%TD*%
%TA.AperFunction,SMDPad,CuDef*%
%ADD17R,1.900000X1.500000*%
%TD*%
%TA.AperFunction,ComponentPad*%
%ADD18C,1.450000*%
%TD*%
%TA.AperFunction,ComponentPad*%
%ADD19O,1.900000X1.200000*%
%TD*%
%TA.AperFunction,SMDPad,CuDef*%
%ADD20R,1.900000X1.200000*%
%TD*%
%TA.AperFunction,ComponentPad*%
%ADD21R,1.700000X1.700000*%
%TD*%
%TA.AperFunction,ComponentPad*%
%ADD22O,1.700000X1.700000*%
%TD*%
%TA.AperFunction,SMDPad,CuDef*%
%ADD23RoundRect,0.135000X-0.135000X-0.185000X0.135000X-0.185000X0.135000X0.185000X-0.135000X0.185000X0*%
%TD*%
%TA.AperFunction,SMDPad,CuDef*%
%ADD24R,1.000000X0.750000*%
%TD*%
%TA.AperFunction,SMDPad,CuDef*%
%ADD25RoundRect,0.250000X-0.650000X0.325000X-0.650000X-0.325000X0.650000X-0.325000X0.650000X0.325000X0*%
%TD*%
%TA.AperFunction,SMDPad,CuDef*%
%ADD26R,1.000000X1.800000*%
%TD*%
%TA.AperFunction,SMDPad,CuDef*%
%ADD27RoundRect,0.135000X-0.185000X0.135000X-0.185000X-0.135000X0.185000X-0.135000X0.185000X0.135000X0*%
%TD*%
%TA.AperFunction,SMDPad,CuDef*%
%ADD28RoundRect,0.140000X-0.170000X0.140000X-0.170000X-0.140000X0.170000X-0.140000X0.170000X0.140000X0*%
%TD*%
%TA.AperFunction,SMDPad,CuDef*%
%ADD29RoundRect,0.243750X0.243750X0.456250X-0.243750X0.456250X-0.243750X-0.456250X0.243750X-0.456250X0*%
%TD*%
%TA.AperFunction,SMDPad,CuDef*%
%ADD30R,2.400000X2.000000*%
%TD*%
%TA.AperFunction,SMDPad,CuDef*%
%ADD31R,1.500000X2.000000*%
%TD*%
%TA.AperFunction,SMDPad,CuDef*%
%ADD32R,3.800000X2.000000*%
%TD*%
%TA.AperFunction,SMDPad,CuDef*%
%ADD33RoundRect,0.140000X-0.140000X-0.170000X0.140000X-0.170000X0.140000X0.170000X-0.140000X0.170000X0*%
%TD*%
%TA.AperFunction,SMDPad,CuDef*%
%ADD34RoundRect,0.075000X-0.662500X-0.075000X0.662500X-0.075000X0.662500X0.075000X-0.662500X0.075000X0*%
%TD*%
%TA.AperFunction,SMDPad,CuDef*%
%ADD35RoundRect,0.075000X-0.075000X-0.662500X0.075000X-0.662500X0.075000X0.662500X-0.075000X0.662500X0*%
%TD*%
%TA.AperFunction,SMDPad,CuDef*%
%ADD36RoundRect,0.135000X0.185000X-0.135000X0.185000X0.135000X-0.185000X0.135000X-0.185000X-0.135000X0*%
%TD*%
%TA.AperFunction,SMDPad,CuDef*%
%ADD37R,0.900000X1.200000*%
%TD*%
%TA.AperFunction,ViaPad*%
%ADD38C,0.600000*%
%TD*%
%TA.AperFunction,Conductor*%
%ADD39C,0.300000*%
%TD*%
%TA.AperFunction,Conductor*%
%ADD40C,0.400000*%
%TD*%
G04 APERTURE END LIST*
D10*
%TO.P,C12,1*%
%TO.N,LSE_OUT*%
X89634000Y-94234000D03*
%TO.P,C12,2*%
%TO.N,GND*%
X88674000Y-94234000D03*
%TD*%
D11*
%TO.P,FB1,1*%
%TO.N,VCC*%
X85043500Y-107442000D03*
%TO.P,FB1,2*%
%TO.N,Net-(D1-Pad2)*%
X87168500Y-107442000D03*
%TD*%
D12*
%TO.P,C14,1*%
%TO.N,NRST*%
X93472000Y-85570000D03*
%TO.P,C14,2*%
%TO.N,GND*%
X93472000Y-84610000D03*
%TD*%
D13*
%TO.P,D3,1,K*%
%TO.N,GND*%
X93218000Y-104927500D03*
%TO.P,D3,2,A*%
%TO.N,Net-(D3-Pad2)*%
X93218000Y-103352500D03*
%TD*%
D14*
%TO.P,R7,1*%
%TO.N,PA11*%
X86106000Y-109982000D03*
%TO.P,R7,2*%
%TO.N,Net-(J1-Pad2)*%
X85086000Y-109982000D03*
%TD*%
%TO.P,R2,1*%
%TO.N,GND*%
X101602000Y-104902000D03*
%TO.P,R2,2*%
%TO.N,Net-(R2-Pad2)*%
X100582000Y-104902000D03*
%TD*%
D12*
%TO.P,C11,1*%
%TO.N,LSE_IN*%
X89662000Y-91666000D03*
%TO.P,C11,2*%
%TO.N,GND*%
X89662000Y-90706000D03*
%TD*%
D15*
%TO.P,C2,1*%
%TO.N,Net-(C2-Pad1)*%
X90932000Y-105742000D03*
%TO.P,C2,2*%
%TO.N,GND*%
X90932000Y-102792000D03*
%TD*%
D16*
%TO.P,J1,1,VBUS*%
%TO.N,VCC*%
X81726500Y-105888000D03*
%TO.P,J1,2,D-*%
%TO.N,Net-(J1-Pad2)*%
X81726500Y-106538000D03*
%TO.P,J1,3,D+*%
%TO.N,Net-(J1-Pad3)*%
X81726500Y-107188000D03*
%TO.P,J1,4,ID*%
%TO.N,unconnected-(J1-Pad4)*%
X81726500Y-107838000D03*
%TO.P,J1,5,GND*%
%TO.N,GND*%
X81726500Y-108488000D03*
D17*
%TO.P,J1,6,Shield*%
%TO.N,unconnected-(J1-Pad6)*%
X79026500Y-106188000D03*
D18*
X81726500Y-104688000D03*
X81726500Y-109688000D03*
D19*
X79026500Y-103688000D03*
D20*
X79026500Y-110088000D03*
D19*
X79026500Y-110688000D03*
D17*
X79026500Y-108188000D03*
D20*
X79026500Y-104288000D03*
%TD*%
D21*
%TO.P,J4,1,Pin_1*%
%TO.N,+3.3V*%
X104648000Y-84074000D03*
D22*
%TO.P,J4,2,Pin_2*%
%TO.N,SWDIO*%
X102108000Y-84074000D03*
%TO.P,J4,3,Pin_3*%
%TO.N,SWCLK*%
X99568000Y-84074000D03*
%TO.P,J4,4,Pin_4*%
%TO.N,GND*%
X97028000Y-84074000D03*
%TD*%
D23*
%TO.P,R4,1*%
%TO.N,+3.3V*%
X84834000Y-85598000D03*
%TO.P,R4,2*%
%TO.N,NRST*%
X85854000Y-85598000D03*
%TD*%
D10*
%TO.P,C6,1*%
%TO.N,+3.3V*%
X102588000Y-102616000D03*
%TO.P,C6,2*%
%TO.N,GND*%
X101628000Y-102616000D03*
%TD*%
D24*
%TO.P,S1,A*%
%TO.N,PushB1*%
X78026000Y-83215000D03*
%TO.P,S1,B*%
X84026000Y-83215000D03*
%TO.P,S1,C*%
%TO.N,GND*%
X78026000Y-86965000D03*
%TO.P,S1,D*%
X84026000Y-86965000D03*
%TD*%
D23*
%TO.P,R6,1*%
%TO.N,Net-(J1-Pad3)*%
X85088000Y-111760000D03*
%TO.P,R6,2*%
%TO.N,PA12*%
X86108000Y-111760000D03*
%TD*%
D25*
%TO.P,C1,1*%
%TO.N,+3.3V*%
X85598000Y-96823000D03*
%TO.P,C1,2*%
%TO.N,GND*%
X85598000Y-99773000D03*
%TD*%
D26*
%TO.P,Y2,1,1*%
%TO.N,LSE_IN*%
X87864000Y-91694000D03*
%TO.P,Y2,2,2*%
%TO.N,LSE_OUT*%
X85364000Y-91694000D03*
%TD*%
D27*
%TO.P,R9,1*%
%TO.N,LED*%
X92964000Y-100582000D03*
%TO.P,R9,2*%
%TO.N,Net-(D3-Pad2)*%
X92964000Y-101602000D03*
%TD*%
D28*
%TO.P,C4,1*%
%TO.N,+3.3V*%
X104140000Y-93246000D03*
%TO.P,C4,2*%
%TO.N,GND*%
X104140000Y-94206000D03*
%TD*%
D29*
%TO.P,D2,1,K*%
%TO.N,GND*%
X83233500Y-89662000D03*
%TO.P,D2,2,A*%
%TO.N,Net-(D2-Pad2)*%
X81358500Y-89662000D03*
%TD*%
D10*
%TO.P,C9,1*%
%TO.N,HSE_IN*%
X87122000Y-94742000D03*
%TO.P,C9,2*%
%TO.N,GND*%
X86162000Y-94742000D03*
%TD*%
D23*
%TO.P,R1,1*%
%TO.N,GND*%
X96518000Y-88392000D03*
%TO.P,R1,2*%
%TO.N,Net-(R1-Pad2)*%
X97538000Y-88392000D03*
%TD*%
D30*
%TO.P,Y1,1,1*%
%TO.N,HSE_IN*%
X89408000Y-96702000D03*
%TO.P,Y1,2,2*%
%TO.N,HSE_OUT*%
X89408000Y-100402000D03*
%TD*%
D31*
%TO.P,U1,1,GND*%
%TO.N,GND*%
X77964000Y-99670000D03*
%TO.P,U1,2,VO*%
%TO.N,+3.3V*%
X80264000Y-99670000D03*
D32*
X80264000Y-93370000D03*
D31*
%TO.P,U1,3,VI*%
%TO.N,Net-(C2-Pad1)*%
X82564000Y-99670000D03*
%TD*%
D24*
%TO.P,S2,A*%
%TO.N,NRST*%
X92662000Y-86965000D03*
%TO.P,S2,B*%
X86662000Y-86965000D03*
%TO.P,S2,C*%
%TO.N,GND*%
X92662000Y-83215000D03*
%TO.P,S2,D*%
X86662000Y-83215000D03*
%TD*%
D33*
%TO.P,C13,1*%
%TO.N,PushB1*%
X84864000Y-84582000D03*
%TO.P,C13,2*%
%TO.N,GND*%
X85824000Y-84582000D03*
%TD*%
D34*
%TO.P,U2,1,VBAT*%
%TO.N,+3.3V*%
X94135500Y-94024000D03*
%TO.P,U2,2,PC13*%
%TO.N,PushB1*%
X94135500Y-94524000D03*
%TO.P,U2,3,PC14*%
%TO.N,LSE_IN*%
X94135500Y-95024000D03*
%TO.P,U2,4,PC15*%
%TO.N,LSE_OUT*%
X94135500Y-95524000D03*
%TO.P,U2,5,PD0*%
%TO.N,HSE_IN*%
X94135500Y-96024000D03*
%TO.P,U2,6,PD1*%
%TO.N,HSE_OUT*%
X94135500Y-96524000D03*
%TO.P,U2,7,NRST*%
%TO.N,NRST*%
X94135500Y-97024000D03*
%TO.P,U2,8,VSSA*%
%TO.N,GND*%
X94135500Y-97524000D03*
%TO.P,U2,9,VDDA*%
%TO.N,+3.3V*%
X94135500Y-98024000D03*
%TO.P,U2,10,PA0*%
%TO.N,LED*%
X94135500Y-98524000D03*
%TO.P,U2,11,PA1*%
%TO.N,PA1*%
X94135500Y-99024000D03*
%TO.P,U2,12,PA2*%
%TO.N,PA2*%
X94135500Y-99524000D03*
D35*
%TO.P,U2,13,PA3*%
%TO.N,PA3*%
X95548000Y-100936500D03*
%TO.P,U2,14,PA4*%
%TO.N,PA4*%
X96048000Y-100936500D03*
%TO.P,U2,15,PA5*%
%TO.N,PA5*%
X96548000Y-100936500D03*
%TO.P,U2,16,PA6*%
%TO.N,PA6*%
X97048000Y-100936500D03*
%TO.P,U2,17,PA7*%
%TO.N,PA7*%
X97548000Y-100936500D03*
%TO.P,U2,18,PB0*%
%TO.N,PB0*%
X98048000Y-100936500D03*
%TO.P,U2,19,PB1*%
%TO.N,PB1*%
X98548000Y-100936500D03*
%TO.P,U2,20,PB2*%
%TO.N,Net-(R2-Pad2)*%
X99048000Y-100936500D03*
%TO.P,U2,21,PB10*%
%TO.N,PB10*%
X99548000Y-100936500D03*
%TO.P,U2,22,PB11*%
%TO.N,PB11*%
X100048000Y-100936500D03*
%TO.P,U2,23,VSS*%
%TO.N,GND*%
X100548000Y-100936500D03*
%TO.P,U2,24,VDD*%
%TO.N,+3.3V*%
X101048000Y-100936500D03*
D34*
%TO.P,U2,25,PB12*%
%TO.N,PB12*%
X102460500Y-99524000D03*
%TO.P,U2,26,PB13*%
%TO.N,PB13*%
X102460500Y-99024000D03*
%TO.P,U2,27,PB14*%
%TO.N,PB14*%
X102460500Y-98524000D03*
%TO.P,U2,28,PB15*%
%TO.N,PB15*%
X102460500Y-98024000D03*
%TO.P,U2,29,PA8*%
%TO.N,PA8*%
X102460500Y-97524000D03*
%TO.P,U2,30,PA9*%
%TO.N,PA9*%
X102460500Y-97024000D03*
%TO.P,U2,31,PA10*%
%TO.N,PA10*%
X102460500Y-96524000D03*
%TO.P,U2,32,PA11*%
%TO.N,PA11*%
X102460500Y-96024000D03*
%TO.P,U2,33,PA12*%
%TO.N,PA12*%
X102460500Y-95524000D03*
%TO.P,U2,34,PA13*%
%TO.N,SWDIO*%
X102460500Y-95024000D03*
%TO.P,U2,35,VSS*%
%TO.N,GND*%
X102460500Y-94524000D03*
%TO.P,U2,36,VDD*%
%TO.N,+3.3V*%
X102460500Y-94024000D03*
D35*
%TO.P,U2,37,PA14*%
%TO.N,SWCLK*%
X101048000Y-92611500D03*
%TO.P,U2,38,PA15*%
%TO.N,PA15*%
X100548000Y-92611500D03*
%TO.P,U2,39,PB3*%
%TO.N,PB3*%
X100048000Y-92611500D03*
%TO.P,U2,40,PB4*%
%TO.N,PB4*%
X99548000Y-92611500D03*
%TO.P,U2,41,PB5*%
%TO.N,PB5*%
X99048000Y-92611500D03*
%TO.P,U2,42,PB6*%
%TO.N,PB6*%
X98548000Y-92611500D03*
%TO.P,U2,43,PB7*%
%TO.N,PB7*%
X98048000Y-92611500D03*
%TO.P,U2,44,BOOT0*%
%TO.N,Net-(R1-Pad2)*%
X97548000Y-92611500D03*
%TO.P,U2,45,PB8*%
%TO.N,PB8*%
X97048000Y-92611500D03*
%TO.P,U2,46,PB9*%
%TO.N,PB9*%
X96548000Y-92611500D03*
%TO.P,U2,47,VSS*%
%TO.N,GND*%
X96048000Y-92611500D03*
%TO.P,U2,48,VDD*%
%TO.N,+3.3V*%
X95548000Y-92611500D03*
%TD*%
D28*
%TO.P,C10,1*%
%TO.N,HSE_OUT*%
X88392000Y-102390000D03*
%TO.P,C10,2*%
%TO.N,GND*%
X88392000Y-103350000D03*
%TD*%
D36*
%TO.P,R3,1*%
%TO.N,+3.3V*%
X77470000Y-85600000D03*
%TO.P,R3,2*%
%TO.N,PushB1*%
X77470000Y-84580000D03*
%TD*%
D21*
%TO.P,J2,1,Pin_1*%
%TO.N,+3.3V*%
X91704000Y-112019000D03*
D22*
%TO.P,J2,2,Pin_2*%
%TO.N,VCC*%
X91704000Y-109479000D03*
%TO.P,J2,3,Pin_3*%
%TO.N,+3.3V*%
X94244000Y-112019000D03*
%TO.P,J2,4,Pin_4*%
%TO.N,GND*%
X94244000Y-109479000D03*
%TO.P,J2,5,Pin_5*%
%TO.N,+3.3V*%
X96784000Y-112019000D03*
%TO.P,J2,6,Pin_6*%
%TO.N,GND*%
X96784000Y-109479000D03*
%TO.P,J2,7,Pin_7*%
%TO.N,LED*%
X99324000Y-112019000D03*
%TO.P,J2,8,Pin_8*%
%TO.N,PA1*%
X99324000Y-109479000D03*
%TO.P,J2,9,Pin_9*%
%TO.N,PA2*%
X101864000Y-112019000D03*
%TO.P,J2,10,Pin_10*%
%TO.N,PA3*%
X101864000Y-109479000D03*
%TO.P,J2,11,Pin_11*%
%TO.N,PA4*%
X104404000Y-112019000D03*
%TO.P,J2,12,Pin_12*%
%TO.N,PA5*%
X104404000Y-109479000D03*
%TO.P,J2,13,Pin_13*%
%TO.N,PA6*%
X106944000Y-112019000D03*
%TO.P,J2,14,Pin_14*%
%TO.N,PA7*%
X106944000Y-109479000D03*
%TO.P,J2,15,Pin_15*%
%TO.N,PB0*%
X109484000Y-112019000D03*
%TO.P,J2,16,Pin_16*%
%TO.N,PB1*%
X109484000Y-109479000D03*
%TO.P,J2,17,Pin_17*%
%TO.N,PB10*%
X112024000Y-112019000D03*
%TO.P,J2,18,Pin_18*%
%TO.N,PB11*%
X112024000Y-109479000D03*
%TD*%
D33*
%TO.P,C5,1*%
%TO.N,+3.3V*%
X94516000Y-90932000D03*
%TO.P,C5,2*%
%TO.N,GND*%
X95476000Y-90932000D03*
%TD*%
D12*
%TO.P,C3,1*%
%TO.N,+3.3V*%
X92456000Y-98270000D03*
%TO.P,C3,2*%
%TO.N,GND*%
X92456000Y-97310000D03*
%TD*%
D21*
%TO.P,J3,1,Pin_1*%
%TO.N,PB9*%
X109474000Y-85090000D03*
D22*
%TO.P,J3,2,Pin_2*%
%TO.N,PB8*%
X112014000Y-85090000D03*
%TO.P,J3,3,Pin_3*%
%TO.N,PB7*%
X109474000Y-87630000D03*
%TO.P,J3,4,Pin_4*%
%TO.N,PB6*%
X112014000Y-87630000D03*
%TO.P,J3,5,Pin_5*%
%TO.N,PB5*%
X109474000Y-90170000D03*
%TO.P,J3,6,Pin_6*%
%TO.N,PB4*%
X112014000Y-90170000D03*
%TO.P,J3,7,Pin_7*%
%TO.N,PB3*%
X109474000Y-92710000D03*
%TO.P,J3,8,Pin_8*%
%TO.N,PA15*%
X112014000Y-92710000D03*
%TO.P,J3,9,Pin_9*%
%TO.N,PA12*%
X109474000Y-95250000D03*
%TO.P,J3,10,Pin_10*%
%TO.N,PA11*%
X112014000Y-95250000D03*
%TO.P,J3,11,Pin_11*%
%TO.N,PA10*%
X109474000Y-97790000D03*
%TO.P,J3,12,Pin_12*%
%TO.N,PA9*%
X112014000Y-97790000D03*
%TO.P,J3,13,Pin_13*%
%TO.N,PA8*%
X109474000Y-100330000D03*
%TO.P,J3,14,Pin_14*%
%TO.N,PB15*%
X112014000Y-100330000D03*
%TO.P,J3,15,Pin_15*%
%TO.N,PB14*%
X109474000Y-102870000D03*
%TO.P,J3,16,Pin_16*%
%TO.N,PB13*%
X112014000Y-102870000D03*
%TO.P,J3,17,Pin_17*%
%TO.N,PB12*%
X109474000Y-105410000D03*
%TO.P,J3,18,Pin_18*%
%TO.N,GND*%
X112014000Y-105410000D03*
%TD*%
D23*
%TO.P,R8,1*%
%TO.N,+3.3V*%
X78484000Y-90018000D03*
%TO.P,R8,2*%
%TO.N,Net-(D2-Pad2)*%
X79504000Y-90018000D03*
%TD*%
%TO.P,R5,1*%
%TO.N,PA12*%
X87120000Y-111760000D03*
%TO.P,R5,2*%
%TO.N,VCC*%
X88140000Y-111760000D03*
%TD*%
D37*
%TO.P,D1,1,K*%
%TO.N,Net-(C2-Pad1)*%
X88264000Y-105156000D03*
%TO.P,D1,2,A*%
%TO.N,Net-(D1-Pad2)*%
X84964000Y-105156000D03*
%TD*%
D38*
%TO.N,GND*%
X85344000Y-83312000D03*
X93980000Y-88392000D03*
X85344000Y-86868000D03*
X106172000Y-93472000D03*
%TO.N,PushB1*%
X85090000Y-82042000D03*
X91948000Y-93472000D03*
%TO.N,PA11*%
X100584000Y-96520000D03*
X87630000Y-110236000D03*
%TO.N,PA12*%
X100584000Y-95504000D03*
X86106000Y-110801500D03*
%TO.N,PA1*%
X96774000Y-98044000D03*
%TO.N,PA2*%
X96012000Y-99568000D03*
%TO.N,PA3*%
X94563028Y-104064972D03*
%TO.N,PA4*%
X95250000Y-103332000D03*
%TO.N,PA5*%
X96207681Y-104151108D03*
%TO.N,PA6*%
X96774000Y-103332000D03*
%TO.N,PA7*%
X97790000Y-104140000D03*
%TO.N,PB1*%
X99534544Y-103721578D03*
%TO.N,PB0*%
X98298000Y-103378000D03*
%TO.N,PB11*%
X104902000Y-102108000D03*
%TO.N,PB10*%
X101600000Y-103632000D03*
%TO.N,PB9*%
X95758000Y-89662000D03*
%TO.N,PB8*%
X96774000Y-89662000D03*
%TO.N,PB7*%
X98272600Y-89712800D03*
%TO.N,PB6*%
X99314000Y-89108000D03*
%TO.N,PB5*%
X100076000Y-89662000D03*
%TO.N,PB4*%
X100838000Y-89108000D03*
%TO.N,PB3*%
X101600000Y-89662000D03*
%TO.N,PA15*%
X102435500Y-89941400D03*
%TO.N,PA10*%
X106172000Y-96012000D03*
%TO.N,PA9*%
X106172000Y-97028000D03*
%TO.N,PA8*%
X106191647Y-98024353D03*
%TO.N,PB15*%
X106172000Y-99060000D03*
%TO.N,PB14*%
X106172000Y-100076000D03*
%TO.N,PB13*%
X106172000Y-101092000D03*
%TO.N,PB12*%
X106172000Y-102108000D03*
%TO.N,LED*%
X94234000Y-101092000D03*
%TO.N,+3.3V*%
X85090000Y-95504000D03*
X89154000Y-113792000D03*
X93218000Y-92964000D03*
X93472000Y-89916000D03*
X103378000Y-92202000D03*
X92202000Y-99568000D03*
X102870000Y-101600000D03*
X81788000Y-101600000D03*
%TD*%
D39*
%TO.N,GND*%
X92662000Y-83215000D02*
X86662000Y-83215000D01*
D40*
X80282500Y-86965000D02*
X78026000Y-86965000D01*
X92662000Y-83215000D02*
X94391000Y-83215000D01*
D39*
X91686000Y-98831107D02*
X91686000Y-97544000D01*
D40*
X80376500Y-102474500D02*
X80264000Y-102362000D01*
D39*
X85598000Y-100598965D02*
X88349035Y-103350000D01*
D40*
X94391000Y-83215000D02*
X94869000Y-83693000D01*
D39*
X105438000Y-94206000D02*
X104140000Y-94206000D01*
X95108000Y-89296000D02*
X96012000Y-88392000D01*
D40*
X92989500Y-104927500D02*
X93218000Y-104927500D01*
D39*
X85824000Y-84053000D02*
X85824000Y-83792000D01*
X103822000Y-94524000D02*
X104140000Y-94206000D01*
X100548000Y-101818000D02*
X101346000Y-102616000D01*
X95108000Y-90564000D02*
X95108000Y-89296000D01*
X112014000Y-105410000D02*
X110814000Y-106610000D01*
X92670000Y-97524000D02*
X92456000Y-97310000D01*
X101628000Y-102658965D02*
X102616000Y-103646965D01*
X86162000Y-94742000D02*
X86162000Y-95052000D01*
X86162000Y-94699035D02*
X86162000Y-94742000D01*
X110814000Y-106610000D02*
X103310000Y-106610000D01*
X101854000Y-104902000D02*
X101602000Y-104902000D01*
X102616000Y-103646965D02*
X102616000Y-104140000D01*
X83233500Y-93139500D02*
X84836000Y-94742000D01*
X102460500Y-94524000D02*
X103822000Y-94524000D01*
X83233500Y-89662000D02*
X83233500Y-93139500D01*
X96518000Y-88392000D02*
X95249000Y-87123000D01*
D40*
X80264000Y-102362000D02*
X77964000Y-100062000D01*
X85824000Y-84053000D02*
X86662000Y-83215000D01*
D39*
X88420000Y-93980000D02*
X86881035Y-93980000D01*
X88349035Y-103350000D02*
X88392000Y-103350000D01*
X88674000Y-94234000D02*
X88420000Y-93980000D01*
X86162000Y-95052000D02*
X87122000Y-96012000D01*
D40*
X77964000Y-99420000D02*
X77964000Y-99670000D01*
X81748750Y-88431250D02*
X80282500Y-86965000D01*
D39*
X87415250Y-88431250D02*
X89662000Y-90678000D01*
X101346000Y-102616000D02*
X101628000Y-102616000D01*
D40*
X96784000Y-109479000D02*
X94244000Y-109479000D01*
D39*
X87122000Y-98249000D02*
X85598000Y-99773000D01*
X96048000Y-92611500D02*
X96048000Y-91504000D01*
X93472000Y-84610000D02*
X93472000Y-84025000D01*
D40*
X85824000Y-84582000D02*
X85824000Y-84053000D01*
D39*
X85344000Y-86868000D02*
X84123000Y-86868000D01*
X100548000Y-100936500D02*
X100548000Y-101818000D01*
X95249000Y-87123000D02*
X94742000Y-86616000D01*
X81748750Y-88431250D02*
X87415250Y-88431250D01*
D40*
X82853000Y-97028000D02*
X80356000Y-97028000D01*
D39*
X101600000Y-104902000D02*
X97023000Y-109479000D01*
D40*
X94244000Y-109479000D02*
X93218000Y-108453000D01*
D39*
X94742000Y-86616000D02*
X94742000Y-83820000D01*
X101602000Y-104902000D02*
X101600000Y-104902000D01*
X97023000Y-109479000D02*
X96784000Y-109479000D01*
X102616000Y-104140000D02*
X101854000Y-104902000D01*
D40*
X85598000Y-99773000D02*
X82853000Y-97028000D01*
X90932000Y-102870000D02*
X92989500Y-104927500D01*
D39*
X87122000Y-96012000D02*
X87122000Y-98249000D01*
D40*
X93218000Y-108453000D02*
X93218000Y-104927500D01*
D39*
X101628000Y-102616000D02*
X101628000Y-102658965D01*
X96048000Y-91504000D02*
X95476000Y-90932000D01*
X91920000Y-97310000D02*
X92456000Y-97310000D01*
D40*
X80701500Y-108488000D02*
X80376500Y-108163000D01*
D39*
X91440000Y-99077107D02*
X91686000Y-98831107D01*
X90452000Y-103350000D02*
X88392000Y-103350000D01*
X85824000Y-83792000D02*
X85344000Y-83312000D01*
X96012000Y-88392000D02*
X96518000Y-88392000D01*
X106172000Y-93472000D02*
X105438000Y-94206000D01*
X90932000Y-102870000D02*
X90452000Y-103350000D01*
D40*
X97028000Y-84074000D02*
X95250000Y-84074000D01*
D39*
X93980000Y-88392000D02*
X95249000Y-87123000D01*
X85598000Y-99773000D02*
X85598000Y-100598965D01*
D40*
X77964000Y-100062000D02*
X77964000Y-99670000D01*
D39*
X86881035Y-93980000D02*
X86162000Y-94699035D01*
D40*
X81748750Y-88431250D02*
X82979500Y-89662000D01*
D39*
X91686000Y-97544000D02*
X91920000Y-97310000D01*
X94135500Y-97524000D02*
X92670000Y-97524000D01*
X94742000Y-83820000D02*
X94869000Y-83693000D01*
X103310000Y-106610000D02*
X101602000Y-104902000D01*
D40*
X80356000Y-97028000D02*
X77964000Y-99420000D01*
X80376500Y-108163000D02*
X80376500Y-102474500D01*
D39*
X93472000Y-84025000D02*
X92662000Y-83215000D01*
D40*
X94869000Y-83693000D02*
X95250000Y-84074000D01*
D39*
X84836000Y-94742000D02*
X86162000Y-94742000D01*
D40*
X84026000Y-86965000D02*
X78026000Y-86965000D01*
X82979500Y-89662000D02*
X83233500Y-89662000D01*
D39*
X95476000Y-90932000D02*
X95108000Y-90564000D01*
X90932000Y-102870000D02*
X91440000Y-102362000D01*
X91440000Y-102362000D02*
X91440000Y-99077107D01*
X84123000Y-86868000D02*
X84026000Y-86965000D01*
D40*
X81726500Y-108488000D02*
X80701500Y-108488000D01*
D39*
%TO.N,Net-(C2-Pad1)*%
X88264000Y-105156000D02*
X90346000Y-105156000D01*
D40*
X88264000Y-104902000D02*
X83032000Y-99670000D01*
D39*
X90346000Y-105156000D02*
X90932000Y-105742000D01*
D40*
X83032000Y-99670000D02*
X82564000Y-99670000D01*
X88264000Y-105156000D02*
X88264000Y-104902000D01*
D39*
%TO.N,HSE_IN*%
X91760893Y-96024000D02*
X91494893Y-95758000D01*
X94135500Y-96024000D02*
X91760893Y-96024000D01*
X89408000Y-96702000D02*
X89082000Y-96702000D01*
X91494893Y-95758000D02*
X90352000Y-95758000D01*
X90352000Y-95758000D02*
X89408000Y-96702000D01*
X89082000Y-96702000D02*
X87122000Y-94742000D01*
%TO.N,HSE_OUT*%
X91186000Y-97028000D02*
X91186000Y-98624000D01*
X88392000Y-102390000D02*
X88392000Y-101164000D01*
X94135500Y-96524000D02*
X91690000Y-96524000D01*
X88392000Y-101164000D02*
X89154000Y-100402000D01*
X91186000Y-98624000D02*
X89408000Y-100402000D01*
X91690000Y-96524000D02*
X91186000Y-97028000D01*
%TO.N,LSE_IN*%
X89662000Y-91666000D02*
X87892000Y-91666000D01*
X89662000Y-91666000D02*
X89662000Y-92456000D01*
X92230000Y-95024000D02*
X94135500Y-95024000D01*
X87892000Y-91666000D02*
X87864000Y-91694000D01*
X89662000Y-92456000D02*
X92230000Y-95024000D01*
%TO.N,LSE_OUT*%
X87142000Y-93472000D02*
X85364000Y-91694000D01*
X94135500Y-95524000D02*
X91968000Y-95524000D01*
X90678000Y-94234000D02*
X89634000Y-94234000D01*
X88914965Y-93472000D02*
X87142000Y-93472000D01*
X89634000Y-94234000D02*
X89634000Y-94191035D01*
X91968000Y-95524000D02*
X90678000Y-94234000D01*
X89634000Y-94191035D02*
X88914965Y-93472000D01*
%TO.N,PushB1*%
X78026000Y-84024000D02*
X77470000Y-84580000D01*
X93000000Y-94524000D02*
X91948000Y-93472000D01*
X94135500Y-94524000D02*
X93000000Y-94524000D01*
X85090000Y-82151000D02*
X84026000Y-83215000D01*
X84864000Y-84582000D02*
X84864000Y-84053000D01*
X78026000Y-83215000D02*
X78026000Y-84024000D01*
X84864000Y-84053000D02*
X84026000Y-83215000D01*
X85090000Y-82042000D02*
X85090000Y-82151000D01*
%TO.N,NRST*%
X86662000Y-86406000D02*
X85854000Y-85598000D01*
X92710000Y-91186000D02*
X92710000Y-87013000D01*
X95758000Y-96240041D02*
X95758000Y-94234000D01*
X94135500Y-97024000D02*
X94974041Y-97024000D01*
X92710000Y-87013000D02*
X92662000Y-86965000D01*
X94974041Y-97024000D02*
X95758000Y-96240041D01*
X92662000Y-86380000D02*
X93472000Y-85570000D01*
X86662000Y-86965000D02*
X86662000Y-86406000D01*
X92662000Y-86965000D02*
X92662000Y-86380000D01*
X95758000Y-94234000D02*
X92710000Y-91186000D01*
%TO.N,Net-(D1-Pad2)*%
X84964000Y-104902000D02*
X84964000Y-105237500D01*
D40*
X87168500Y-105964500D02*
X87168500Y-107442000D01*
X84964000Y-104902000D02*
X86106000Y-104902000D01*
X86106000Y-104902000D02*
X87168500Y-105964500D01*
D39*
%TO.N,Net-(D2-Pad2)*%
X81358500Y-89916000D02*
X79606000Y-89916000D01*
X79606000Y-89916000D02*
X79504000Y-90018000D01*
%TO.N,Net-(D3-Pad2)*%
X92964000Y-103098500D02*
X93218000Y-103352500D01*
X92964000Y-101602000D02*
X92964000Y-103098500D01*
%TO.N,VCC*%
X88392000Y-111508000D02*
X88140000Y-111760000D01*
X86405500Y-108804000D02*
X87722000Y-108804000D01*
X85043500Y-107442000D02*
X86405500Y-108804000D01*
D40*
X83489500Y-105888000D02*
X85043500Y-107442000D01*
D39*
X87722000Y-108804000D02*
X88392000Y-109474000D01*
D40*
X81726500Y-105888000D02*
X83489500Y-105888000D01*
D39*
X88140000Y-111760000D02*
X89423000Y-111760000D01*
X89423000Y-111760000D02*
X91704000Y-109479000D01*
X88392000Y-109474000D02*
X88392000Y-111508000D01*
%TO.N,PA11*%
X104128000Y-96024000D02*
X104648000Y-95504000D01*
X87376000Y-109982000D02*
X86106000Y-109982000D01*
X101080000Y-96024000D02*
X100584000Y-96520000D01*
X102460500Y-96024000D02*
X101080000Y-96024000D01*
X104902000Y-95504000D02*
X105156000Y-95250000D01*
X102460500Y-96024000D02*
X104128000Y-96024000D01*
X87630000Y-110236000D02*
X87376000Y-109982000D01*
X104648000Y-95504000D02*
X104902000Y-95504000D01*
X106934000Y-95250000D02*
X108204000Y-96520000D01*
X110744000Y-96520000D02*
X112014000Y-95250000D01*
X105156000Y-95250000D02*
X106934000Y-95250000D01*
X108204000Y-96520000D02*
X110744000Y-96520000D01*
%TO.N,PA12*%
X100604000Y-95524000D02*
X100584000Y-95504000D01*
X104648000Y-94996000D02*
X104938000Y-94706000D01*
X104140000Y-94996000D02*
X104648000Y-94996000D01*
X86106000Y-110801500D02*
X86106000Y-111758000D01*
X104938000Y-94706000D02*
X108930000Y-94706000D01*
X86106000Y-111758000D02*
X86108000Y-111760000D01*
D40*
X87120000Y-111760000D02*
X86108000Y-111760000D01*
D39*
X102460500Y-95524000D02*
X103612000Y-95524000D01*
X109474000Y-95250000D02*
X108930000Y-94706000D01*
X103612000Y-95524000D02*
X104140000Y-94996000D01*
X102460500Y-95524000D02*
X100604000Y-95524000D01*
%TO.N,PA1*%
X96774000Y-98044000D02*
X96616761Y-98044000D01*
X96616761Y-98044000D02*
X95636761Y-99024000D01*
X95636761Y-99024000D02*
X94135500Y-99024000D01*
%TO.N,PA2*%
X95968000Y-99524000D02*
X96012000Y-99568000D01*
X94135500Y-99524000D02*
X95968000Y-99524000D01*
%TO.N,PA3*%
X94563028Y-104064972D02*
X94563028Y-101921472D01*
X94563028Y-101921472D02*
X95548000Y-100936500D01*
%TO.N,PA4*%
X96048000Y-101818000D02*
X96048000Y-100936500D01*
X95250000Y-103332000D02*
X95250000Y-102616000D01*
X95250000Y-102616000D02*
X96048000Y-101818000D01*
%TO.N,PA5*%
X96548000Y-102080000D02*
X96548000Y-100936500D01*
X96207681Y-104151108D02*
X96207681Y-103581683D01*
X96197000Y-102431000D02*
X96548000Y-102080000D01*
X96197000Y-103571002D02*
X96197000Y-102431000D01*
X96207681Y-103581683D02*
X96197000Y-103571002D01*
%TO.N,PA6*%
X97048000Y-102287106D02*
X97048000Y-100936500D01*
X96774000Y-102561106D02*
X97048000Y-102287106D01*
X96774000Y-103332000D02*
X96774000Y-102561106D01*
%TO.N,PA7*%
X97548000Y-103898000D02*
X97548000Y-100936500D01*
X97790000Y-104140000D02*
X97548000Y-103898000D01*
%TO.N,PB1*%
X99534544Y-103721578D02*
X98548000Y-102735034D01*
X98548000Y-102735034D02*
X98548000Y-100936500D01*
%TO.N,PB0*%
X98048000Y-103128000D02*
X98048000Y-100936500D01*
X98298000Y-103378000D02*
X98048000Y-103128000D01*
%TO.N,PB11*%
X102288041Y-100838000D02*
X101299041Y-99849000D01*
X100048000Y-100097959D02*
X100048000Y-100936500D01*
X103632000Y-100838000D02*
X102288041Y-100838000D01*
X104902000Y-102108000D02*
X103632000Y-100838000D01*
X100296959Y-99849000D02*
X100048000Y-100097959D01*
X101299041Y-99849000D02*
X100296959Y-99849000D01*
%TO.N,PB10*%
X101600000Y-103632000D02*
X101346000Y-103632000D01*
X101346000Y-103632000D02*
X99548000Y-101834000D01*
X99548000Y-101834000D02*
X99548000Y-100936500D01*
%TO.N,PB9*%
X96548000Y-90452000D02*
X96548000Y-92611500D01*
X95758000Y-89662000D02*
X96548000Y-90452000D01*
%TO.N,PB8*%
X97048000Y-89936000D02*
X97048000Y-92611500D01*
X96774000Y-89662000D02*
X97048000Y-89936000D01*
%TO.N,PB7*%
X98272600Y-89712800D02*
X98048000Y-89937400D01*
X98048000Y-89937400D02*
X98048000Y-92611500D01*
%TO.N,PB6*%
X99314000Y-89108000D02*
X99314000Y-89819239D01*
X98548000Y-90585239D02*
X98548000Y-92611500D01*
X99314000Y-89819239D02*
X98548000Y-90585239D01*
%TO.N,PB5*%
X99048000Y-90847239D02*
X100076000Y-89819239D01*
X99048000Y-92611500D02*
X99048000Y-90847239D01*
X100076000Y-89819239D02*
X100076000Y-89662000D01*
%TO.N,PB4*%
X100838000Y-89108000D02*
X100838000Y-89819239D01*
X99548000Y-91109239D02*
X99548000Y-92611500D01*
X100838000Y-89819239D02*
X99548000Y-91109239D01*
%TO.N,PB3*%
X100048000Y-91371239D02*
X100048000Y-92611500D01*
X101600000Y-89662000D02*
X101600000Y-89819239D01*
X101600000Y-89819239D02*
X100048000Y-91371239D01*
%TO.N,PA15*%
X102435500Y-89941400D02*
X102239839Y-89941400D01*
X102239839Y-89941400D02*
X100548000Y-91633239D01*
X100548000Y-91633239D02*
X100548000Y-92611500D01*
%TO.N,PA10*%
X105660000Y-96524000D02*
X102460500Y-96524000D01*
X106172000Y-96012000D02*
X105660000Y-96524000D01*
%TO.N,PA9*%
X106172000Y-97028000D02*
X106168000Y-97024000D01*
X106168000Y-97024000D02*
X102460500Y-97024000D01*
%TO.N,PA8*%
X105980220Y-98024353D02*
X105479867Y-97524000D01*
X105479867Y-97524000D02*
X102460500Y-97524000D01*
X106191647Y-98024353D02*
X105980220Y-98024353D01*
%TO.N,PB15*%
X106172000Y-98923239D02*
X105272761Y-98024000D01*
X105272761Y-98024000D02*
X102460500Y-98024000D01*
X106172000Y-99060000D02*
X106172000Y-98923239D01*
%TO.N,PB14*%
X104620000Y-98524000D02*
X102460500Y-98524000D01*
X106172000Y-100076000D02*
X104620000Y-98524000D01*
%TO.N,PB13*%
X104104000Y-99024000D02*
X102460500Y-99024000D01*
X106172000Y-101092000D02*
X104104000Y-99024000D01*
%TO.N,PB12*%
X103588000Y-99524000D02*
X102460500Y-99524000D01*
X106172000Y-102108000D02*
X103588000Y-99524000D01*
%TO.N,SWDIO*%
X101548000Y-93016000D02*
X103886000Y-90678000D01*
X101621959Y-95024000D02*
X101346000Y-94748041D01*
X103886000Y-85852000D02*
X102108000Y-84074000D01*
X101346000Y-93652041D02*
X101548000Y-93450041D01*
X101346000Y-94748041D02*
X101346000Y-93652041D01*
X103886000Y-90678000D02*
X103886000Y-85852000D01*
X101548000Y-93450041D02*
X101548000Y-93016000D01*
X102460500Y-95024000D02*
X101621959Y-95024000D01*
%TO.N,SWCLK*%
X101048000Y-92611500D02*
X103012000Y-90647500D01*
X103012000Y-87518000D02*
X99568000Y-84074000D01*
X103012000Y-90647500D02*
X103012000Y-87518000D01*
%TO.N,Net-(R1-Pad2)*%
X97548000Y-92611500D02*
X97548000Y-88402000D01*
X97548000Y-88402000D02*
X97538000Y-88392000D01*
%TO.N,Net-(R2-Pad2)*%
X99048000Y-102362000D02*
X99060000Y-102362000D01*
X99060000Y-102362000D02*
X100584000Y-103886000D01*
X100584000Y-104900000D02*
X100582000Y-104902000D01*
X100584000Y-103886000D02*
X100584000Y-104900000D01*
X99048000Y-100936500D02*
X99048000Y-102362000D01*
%TO.N,LED*%
X94234000Y-101092000D02*
X94234000Y-100961041D01*
X93048000Y-98772959D02*
X93296959Y-98524000D01*
X93724000Y-100582000D02*
X92964000Y-100582000D01*
X94234000Y-101092000D02*
X93724000Y-100582000D01*
X93048000Y-99775041D02*
X93048000Y-98772959D01*
X93296959Y-98524000D02*
X94135500Y-98524000D01*
X94234000Y-100961041D02*
X93048000Y-99775041D01*
%TO.N,+3.3V*%
X94516000Y-91976000D02*
X94516000Y-90932000D01*
X89154000Y-113792000D02*
X89931000Y-113792000D01*
X94135500Y-94024000D02*
X94135500Y-93881500D01*
X91704000Y-112019000D02*
X94244000Y-112019000D01*
X102588000Y-102476500D02*
X102588000Y-102616000D01*
X103238500Y-93246000D02*
X104140000Y-93246000D01*
X104648000Y-92738000D02*
X104648000Y-84074000D01*
X92456000Y-98270000D02*
X92702000Y-98024000D01*
X85598000Y-96823000D02*
X85598000Y-96012000D01*
X103378000Y-93106500D02*
X102460500Y-94024000D01*
X102870000Y-101600000D02*
X102870000Y-102334000D01*
X92456000Y-99314000D02*
X92202000Y-99568000D01*
X93500000Y-89916000D02*
X94516000Y-90932000D01*
D40*
X76960000Y-85600000D02*
X77470000Y-85600000D01*
X77470000Y-85600000D02*
X84832000Y-85600000D01*
D39*
X92456000Y-98270000D02*
X92456000Y-99314000D01*
X93472000Y-89916000D02*
X93500000Y-89916000D01*
D40*
X76454000Y-87988000D02*
X76454000Y-86106000D01*
D39*
X85598000Y-96012000D02*
X85090000Y-95504000D01*
X95151500Y-92611500D02*
X94516000Y-91976000D01*
D40*
X78484000Y-90018000D02*
X76454000Y-87988000D01*
X78484000Y-91590000D02*
X78484000Y-90018000D01*
D39*
X104140000Y-93246000D02*
X104648000Y-92738000D01*
X80264000Y-100076000D02*
X81788000Y-101600000D01*
X94244000Y-112019000D02*
X96784000Y-112019000D01*
X92702000Y-98024000D02*
X94135500Y-98024000D01*
X103378000Y-92202000D02*
X103378000Y-93106500D01*
X102870000Y-102334000D02*
X102588000Y-102616000D01*
X80264000Y-99670000D02*
X80264000Y-100076000D01*
D40*
X80264000Y-93370000D02*
X78484000Y-91590000D01*
D39*
X101048000Y-100936500D02*
X102588000Y-102476500D01*
D40*
X85598000Y-96823000D02*
X83717000Y-96823000D01*
D39*
X94135500Y-93881500D02*
X93218000Y-92964000D01*
X95548000Y-92611500D02*
X95151500Y-92611500D01*
X89931000Y-113792000D02*
X91704000Y-112019000D01*
D40*
X84832000Y-85600000D02*
X84834000Y-85598000D01*
X83717000Y-96823000D02*
X80264000Y-93370000D01*
X76454000Y-86106000D02*
X76960000Y-85600000D01*
D39*
%TO.N,Net-(J1-Pad2)*%
X81726500Y-106538000D02*
X82662000Y-106538000D01*
X85088000Y-108964000D02*
X85088000Y-110236000D01*
X82662000Y-106538000D02*
X85088000Y-108964000D01*
%TO.N,Net-(J1-Pad3)*%
X83312000Y-107950000D02*
X82550000Y-107188000D01*
X82550000Y-107188000D02*
X81726500Y-107188000D01*
X83312000Y-110490000D02*
X83312000Y-107950000D01*
X84582000Y-111760000D02*
X83312000Y-110490000D01*
X85088000Y-111760000D02*
X84582000Y-111760000D01*
%TD*%
M02*
